<?xml version="1.0" encoding="utf-8"?>
<!-- Generator: Adobe Illustrator 19.0.0, SVG Export Plug-In . SVG Version: 6.00 Build 0)  -->
<svg version="1.1" id="Layer_1" xmlns="http://www.w3.org/2000/svg" xmlns:xlink="http://www.w3.org/1999/xlink" x="0px" y="0px"
	 viewBox="0 0 400 400" style="enable-background:new 0 0 400 400;" xml:space="preserve">
<style type="text/css">
	.st0{fill:#1AD000;}
</style>
<path id="XMLID_612_" class="st0" d="M181,293.9c-7.7-13.7-15-27.8-15.3-44.2c-0.2-12.6-0.7-25.2-1.1-37.7c-0.1-2.8-0.4-5.6-0.2-8.4
	c5.4-82.8,60-135.8,137.6-155.7c24.6-6.3,46.9,1.5,61.2,23.6c17.2,26.5,24.2,56,20.8,87.6c-0.8,7.3-3.3,14.8-2.2,21.7
	c3,18.4-0.8,35.8-5.1,53.3c-7.2,28.9-13.2,58.2-27.1,85c-14,27-35.3,40.9-57.4,39.3C236.3,357.6,203.4,334,181,293.9z M338.7,61.5
	c-0.9,0.9-1.8,1.8-2.7,2.7c4.2,4.2,8.3,8.4,12.7,12.4c0.2,0.2,2.6-1.9,3.9-2.9c3.6,3.3,7.2,6.6,10.8,9.8c0.7-0.7,1.4-1.3,2-2
	c-3.8-4.4-7.7-8.8-11.5-13.2c-0.5,0.4-1,0.8-1.5,1.2c0.2,1.5,0.3,3,0.5,4.4C348.2,69.8,343.4,65.7,338.7,61.5z M245.3,345.8
	c5.6,5.6,12.1,5.2,18.8,3.4c0.7,1.2,1.4,3.6,2,3.6c5.3-0.2,10.6-0.9,15.9-1.4c2,1,4.1,3,5.9,2.7c5.4-0.8,10.8-2.4,15.9-4.8
	c-5.6-4-10.9-4.9-16.2-0.5c-1.6,1.4-3.9,1.9-5.9,2.9c1.2-1.6,2.4-3.2,5.3-7c-9.1,1.9-16.1,3.3-23.1,4.8
	C258.4,344,251.7,345.5,245.3,345.8z M318.8,338.9c5.9-3.3,10.8-6.1,15.7-8.8c-0.7-1.3-1.4-2.6-2.1-3.9c-4.5,2.2-9,4.5-13.5,6.7
	c0.3-1.5,0.6-3.1,0.9-4.9c-2.1-0.4-4.2-1.4-5.9-1c-3,0.8-5.9,2.3-8.7,3.9c-0.2,0.1,1.3,4.9,2.2,4.9c3,0.2,6.1-0.6,9.1-1.3
	c0.9-0.2,1.7-1.3,2.5-1.9C319,334.1,319,335.6,318.8,338.9z M371.6,101.8c0.9-0.7,1.8-1.3,2.7-2c-2.9-4.7-5.8-9.3-8.7-14
	c-0.8,0.4-1.6,0.7-2.3,1.1c0.3,2,0.7,4,1,6c-1.9-2.7-3.6-5.5-5.6-8c-3-3.7-6.4-6.7-11.4-3.2c-5.1-2.7-10.2-5.3-15.2-7.9
	c3.5,15.9,6.3,18.3,19.3,18.3c-1.5-3.7-2.9-7.1-4.3-10.6c2.6,3.7,4.9,7.7,8,11c1.9,2,5,3,7.5,4.4c0.5-1.6,1-3.1,1.5-4.7
	C366.6,95.5,369.1,98.6,371.6,101.8z M274.5,70.4c3.9,4.9,8.5,8.2,14.9,5.3c1.8-0.8,2.8-3.5,4.2-5.3c4.7,1.1,9.4,2.3,14.2,3.4
	c0.3-0.8,0.5-1.7,0.8-2.5c-4.6-5.1-7.9-12.9-17.9-7.6c1.1,2.4,2.2,4.7,3.3,6.9C287.6,64.7,281.3,63.6,274.5,70.4z M317.8,81.2
	c-4-6.8-9.4-8.1-16.6-4.8c4.4,6.6,7.1,15.3,17.9,12.6c1.3-0.3,2.1-2.4,3.1-3.6c3.6,1.8,7.3,3.5,12.6,6.1c-5.7-15.7-8.2-17.9-18-16.3
	c1.9,3.6,3.8,7.1,5.7,10.6C320.9,84.2,318.9,83,317.8,81.2z M291.4,90.7c-7.7-12-9.5-12.5-22.5-6c1.7,2.1,3.3,4.1,4.9,6.2
	c-2.7-1.2-5.3-2.4-8.6-3.8c-2.5,3.4-5,6.9-7.7,10.5c8.8,2.8,16.9-1.1,16-7C279.4,94.3,285.3,93.9,291.4,90.7z M325.1,308.3
	c11.8,1.4,9.3-9.3,14.3-15.9c-6,0.6-10.9-5-15,2.5c3.1,0.8,5.4,1.4,10.1,2.7c-3.6,4.3-6.4,7.6-9.1,10.8c-8.6,1-11.4,7.5-14.1,14.3
	c8.8,7.4,12.8-0.5,17.7-5.4c-0.8,2.4-1.6,4.7-2.4,7.1c9.6,2.4,11.2,1.1,15.6-12.8c-7.3-4.2-10,2.3-14,5.9
	C330.2,313.4,329.8,310.1,325.1,308.3z M282,97c7.8,4.6,9.1,18.4,23,13c-1.6-3.8-3.2-7.4-4.8-11.1c1.6,1.8,3.8,3.4,4.8,5.5
	c2.7,5.7,6.6,7.1,12.2,4.7c-4.2-15.7-7.7-18.8-18.5-15.9c0.6,2,1.2,4,1.8,6.1C295.5,93.1,289.7,91.8,282,97z M310.9,119.8
	c-2.2-7-6.3-8.6-13.1-5.6c3,6.9,5.3,14.1,9.1,20.4c1.7,2.9,6.1,6.4,10.1,1.3c2.7,0.5,5.5,1.1,8.2,1.6c0.3-2.5,1.3-5.1,0.8-7.5
	c-0.7-3.8-2.4-7.4-3.4-11.1c-1.7-6.2-5.4-7.8-11-5.8c1.9,7.9,3.8,15.5,5.6,23.2C315.1,130.7,312.7,125.3,310.9,119.8z M290.7,112
	c-5.6-14.6-12.6-17.3-26.5-10.2C275,116,275.4,116.2,290.7,112z M302.8,134.2c-1.4-16.3-7.8-21.2-22.9-16.9
	C284.3,128.1,291.3,134.3,302.8,134.2z M359.1,115.6c0.6-14.6-4.4-20.6-19-21.6C344.1,104.1,344.1,116.5,359.1,115.6z M238.8,214.3
	c2.6-9.9,1.9-10.8-7.6-10.4c-3.6,0.2-7.2,0.5-10.8,0.9c-1.3,0.2-2.5,0.9-3.7,1.4C218,217.3,218.3,217.4,238.8,214.3z M313.5,91.6
	c2.1,14.8,8,20.3,19.3,17.9C329.3,93.2,326,90.2,313.5,91.6z M272.9,115.5c-9.5-13.6-14.2-14.6-25.9-5.8
	C259.4,120.6,261.9,121.2,272.9,115.5z M244.5,112.7c-3-0.7-7.2,1.4-9.9,3.5c-1.2,0.9-1.1,6.1,0.2,7.2c2.1,1.8,5.9,2.7,8.6,2.3
	c4.3-0.7,8.3-2.8,14.8-5.3C252.6,117,248.8,113.6,244.5,112.7z M330,135c12.3-2.1,6.6-10.6,6.2-16.4c-0.6-9.1-7.6-5.3-13.3-5.7
	C325.4,120.7,327.6,127.7,330,135z M258.5,228.2c0-4.3,0-7.8,0-11.2c-15.7-2.3-18-0.6-15.7,12.5C247.8,229,253,228.6,258.5,228.2z
	 M311.5,235.5c-0.3,0.7-0.6,1.5-0.9,2.2c1.1,0.8,2.3,1.7,2.4,1.8c-0.4,2.5-1.8,5.2-1,6.4c3.4,4.8,11.5,3.4,22.6-4.1
	C326.1,239.4,318.8,237.5,311.5,235.5z M258.5,203.8c-13.2-3.6-17.4-1-15.4,10.2C259.1,215,259.5,214.8,258.5,203.8z M335,255.9
	c-0.2,5-1.4,9.7-0.2,13.6c0.5,1.8,7.9,3.7,8.5,2.8c2.6-3.4,3.8-7.9,5.7-12.6C344,258.4,340.4,257.4,335,255.9z M303,231.1
	c2.9-0.9,5-4.1,7.5-6.3c-3.4-1.8-7.1-5.6-10-5c-3.7,0.8-6.6,5-9.9,7.8c0.5,1.1,1,2.1,1.4,3.2C295.8,231,299.7,232.1,303,231.1z
	 M274.5,213.8c-4.2,0.7-8.4,1.4-12.9,2.1c-0.2,4-0.4,7.3-0.7,11.2C275.3,227.7,276.9,226.2,274.5,213.8z M242.2,199.7
	c13.6,3.6,17.2,1.5,15.5-9.6C241.5,190.5,241.5,190.6,242.2,199.7z M305.5,88.5c-5.4-12.5-7.8-13.7-19.7-8.8
	C291.5,85.7,295.1,94.7,305.5,88.5z M357.3,98.5c4.9,8.2,1.5,19.4,14,22.9C370.4,105.6,367.9,101.2,357.3,98.5z M239.5,218.3
	c-5.5,0-11,0-17.7,0c4.8,6.8,7.8,13.5,17.7,10.6C239.5,225.2,239.5,222,239.5,218.3z M340,73.3c-4.8-8.4-9.9-15.6-21.8-13
	C323,69,328.8,75.1,340,73.3z M335.1,306.9c9.5,2.8,10.3,2,14.7-14.5C336.9,290.1,339.4,301.4,335.1,306.9z M280.6,277.2
	c11.7,0.5,23.4,1,34.2,1.5C305.2,267,292.9,272.1,280.6,277.2z M350.9,245.4c-4.2-1-7.9-1.9-11.5-2.7c-4.7,10.8-3.4,12.7,9.5,13.3
	C349.7,252.2,350.3,249,350.9,245.4z M261.1,198.6c13.3,1.2,15.1-0.3,12.8-10.9c-3.9,0.4-8,0.9-13.3,1.5
	C260.8,192.9,260.9,195.8,261.1,198.6z M263.6,122.1c4,9.5,13.2,4.5,19.3,7.6C277.3,116.6,275.7,116.1,263.6,122.1z M348.3,128.7
	c4.5,0,8.5,0,12.5,0c1.5-9.7,0.3-10.8-12.5-12.3C348.3,120.5,348.3,124.5,348.3,128.7z M261.9,211.8c12.2,2.1,14.5,0.2,12.9-10.5
	C262.3,200,260.9,201.2,261.9,211.8z M322.2,71.5c-5.3-11.4-8-12.9-19.3-10.5C312.9,73,312.9,73,322.2,71.5z M279,209
	c10.8-2.1,12.5-4.3,10.8-15C283.4,197.8,273.6,198,279,209z M239.4,191.2c-7.7,3.1-14.2,5.7-20.8,8.4c0.3,1,0.5,2,0.8,3
	c6.6-0.5,13.2-1.1,20-1.6C239.4,197.9,239.4,195.6,239.4,191.2z M342.6,234.6c-0.4,1.6-1,3-1.5,4.5c9.9,5.7,11.5,4.6,12.7-9
	c-3.1-0.7-6.2-1.4-10-2.2C343.3,230.9,343.1,232.8,342.6,234.6z M272.9,240.8c-13.9,0-13.9,0-13.9,9.9
	C273.3,250.4,273.9,250,272.9,240.8z M245.2,231.4c-1.3,0.1-3.4,1.5-3.6,2.5c-0.2,1.6,0.7,4.7,1.5,4.9c3.9,0.8,8.2,1.5,12,0.7
	c1.8-0.4,2.8-4.4,5-8.2C253.4,231.2,249.3,231,245.2,231.4z M327.9,93.2c6.7,5.3,3.4,16.8,15.5,18.7C339.3,93.9,338,92.3,327.9,93.2
	z M274.3,229.4c-13.2-0.4-13.9,0.1-13.6,9.5C274.4,239,275.3,238.3,274.3,229.4z M291.6,209.7c-15,3.2-15.2,3.5-12.9,14.1
	c0.9,0.6,1.9,1.1,2.8,1.7C284.8,220.2,288.2,214.9,291.6,209.7z M345.1,211.8c9.7,5.7,12.7,4.5,14.2-6.5c-4.2-0.5-8.3-1.1-12.5-1.6
	C346.1,207.1,345.6,209.5,345.1,211.8z M354.7,227.4c0.7-2.9,1.5-5.9,2.5-9.4c-4.5-0.8-8.2-1.5-11.8-2.1
	C341.1,225.1,342,226.2,354.7,227.4z M343.5,289.1c8.7,0.6,9,0.3,11.2-13.2C345.9,274.8,344.4,276.7,343.5,289.1z M347.6,272.7
	c12,1.1,9.3-7.6,11.2-14.1C346.6,257.9,350.2,266.8,347.6,272.7z M238.3,155.4c10-1.2,20.8-2.4,30.4-3.5
	C258.4,145.3,246.9,146.5,238.3,155.4z M272.3,251.6c-6,1-10.6,1.8-15.3,2.6c-0.2,1-0.3,2.1-0.5,3.1c4.1,1.7,8.3,3.4,13.2,5.4
	C270.7,258.5,271.4,255.7,272.3,251.6z M372.9,104.2c-0.9,0.3-1.8,0.7-2.7,1c2.2,7.1,4.3,14.2,6.5,21.2c1.1-0.5,2.3-0.9,3.4-1.4
	C378.1,118,379.5,109.5,372.9,104.2z M339.9,130.6c0.8,0.4,1.6,0.7,2.4,1.1c1.3-2.7,3.7-5.4,3.6-8.1c-0.1-4.1,0.9-10.3-7.9-9.2
	C338.7,120.3,339.3,125.4,339.9,130.6z M355.6,193.5c1.4,0.1,3-1.6,4.5-2.5c-1-1.5-1.6-3.6-2.9-4.3c-3.2-1.6-6.8-2.6-10.3-3.8
	C344.9,191.3,349.8,193.1,355.6,193.5z M365.3,230.4c-9.1-0.8-9.8,0.1-10,11.4C365.8,243,362.7,235,365.3,230.4z M278,196.2
	c5.6-1.2,11.4-2,11.3-10.6C276.5,186.5,276.5,186.5,278,196.2z M300,186.6c-7,1.7-9.2,5.6-6.4,12.4C303.7,196.4,304,195.8,300,186.6
	z M327.7,140c-5-0.2-8.3,0.3-7.6,6.2c0.6,5.4,3.3,6.3,8.9,4.8C328.5,147,328.1,143.5,327.7,140z M361.7,245.3
	c-9.9-3.3-8.4,4.6-10.9,10.1C361.8,258.2,360.2,250.6,361.7,245.3z M319.6,223.5c5.3,4.6,9,7.7,13.6,11.7
	C334.5,224.4,332.3,222.4,319.6,223.5z M354.4,202.4c1.8,0.1,3.7-1.8,5.6-2.8c-3.8-2.2-7.6-4.4-12.3-7.1
	C344.8,202.2,350.2,202.2,354.4,202.4z M286.3,296.7c4.7,6.4,13.6,6.8,25,1.8C303.5,297.9,295,297.3,286.3,296.7z M308.4,140.1
	c1.3,5.3-0.6,12.4,9.1,11.2C318.8,143.8,317.4,139.3,308.4,140.1z M238.5,148.2c-9.7,0.4-15.9,4.2-17.8,12.9
	C226.5,156.9,232.2,152.7,238.5,148.2z M355.8,225.8c11.4,3.5,10.8-2.9,11.5-8c-0.9-0.8-1.7-1.6-2.6-2.4
	C362,218.5,359.3,221.6,355.8,225.8z M308.5,48.5c4,10.4,10.1,9.1,15.9,8.5c0.3-0.8,0.6-1.7,0.9-2.5C320.3,52.8,315.4,51,308.5,48.5
	z M330.1,181.1c0.6-6.4,1.8-11.8-6.7-15.7C324.7,172.3,322,178.4,330.1,181.1z M369.9,203.4c-0.8-0.6-1.5-1.1-2.3-1.7
	c-2.7,3.6-5.5,7.1-8.2,10.7C371,215.3,369.8,208.9,369.9,203.4z M284.1,250.6c-11.1-1.7-10.1,4.9-11.1,9.8c0.9,0.7,1.9,1.4,2.8,2.1
	C278.4,258.9,280.9,255.3,284.1,250.6z M321.8,154.1c0.2,4.8-1.4,10.1,6.7,10.9C330,155.1,329.8,154.8,321.8,154.1z M363.6,241.2
	c10.5-1.3,8.9-7.5,9.8-12.1c-1.1-0.6-2.1-1.3-3.2-1.9C368.3,231.3,366.4,235.3,363.6,241.2z M295.7,51.5c-0.3,1.4-0.6,2.8-0.9,4.2
	c4.5,1,8.9,2,13.4,3c0.3-1.6,0.7-3.2,1-4.9C304.7,53.1,300.2,52.3,295.7,51.5z M301.9,238.2c-4-1.1-8-2.3-12.1-3.5
	c-0.5,0.5-1,1-1.5,1.5c2.4,3,4.9,5.9,7.9,9.6C298.8,242.3,300.2,240.4,301.9,238.2z M380.4,202.7c-8.3-1.8-8.4-1.6-8.3,9.3
	c0.9,0.5,1.7,1.1,2.6,1.6C376.5,210.1,378.4,206.6,380.4,202.7z M319.3,179.2c1-1.2,3.2-2.9,2.9-3.6c-1.3-3.3,1.3-10-8.8-8.2
	C315.7,172,317.5,175.6,319.3,179.2z M357.5,154.3c5.5,3.2,10.5,6.1,15.3,8.9C373.1,154.9,368.8,152,357.5,154.3z M273.5,247.2
	c11.2-0.7,11.4-1,8.9-12.2C278.9,239.7,276.7,242.8,273.5,247.2z M371.7,242.6c-10.2,1-7.6,7.4-9.5,11c1.1,0.7,2.2,1.4,3.4,2
	C367.3,251.9,369.1,248.2,371.7,242.6z M358.5,270.5c1.2,0.5,2.4,1,3.6,1.5c1.7-4.5,3.3-8.9,5-13.4c-1.3-0.6-2.6-1.2-3.9-1.7
	C361.6,261.4,360.1,265.9,358.5,270.5z M291.1,211.4c1,0.6,2,1.2,3,1.8c2.5-4.1,5-8.1,7.5-12.2c-1.1-0.7-2.3-1.3-3.4-2
	C295.8,203.1,293.4,207.3,291.1,211.4z M323,209.5c4.2-10.2,3.7-11.5-4.2-12.2C320.4,201.8,321.7,205.6,323,209.5z M232.4,333.3
	c-5.7-1.9-10.1-3.4-14.5-4.8c-0.3,0.8-0.5,1.6-0.8,2.4C221,334.1,224.2,339.9,232.4,333.3z M365,179.1c0-0.5,0-0.9,0-1.4
	c-6-0.7-12.1-1.5-18.1-2.2c-0.1,1.2-0.1,2.4-0.2,3.6C352.8,179.1,358.9,179.1,365,179.1z"/>
<path id="XMLID_589_" class="st0" d="M18.8,255.2c-6.4-12.7-4.9-25.7-5.6-38.7c-0.5-9.7-0.6-19.8,1.2-29.3
	c8.4-44.4,38-70.2,78.4-84.9c29.5-10.7,48.8,0.1,60.4,29.4c9.6,24.3,5.2,49.1,3.4,73.2c-1.6,21.7-9.2,43.4-16.5,64.3
	c-9.7,27.8-23.1,36.6-58.4,36.7C55.4,305.4,34,285.3,18.8,255.2z M140.9,138.5c-2-3.2-5-5.9-7.6-8.7c3.2-2.9,2-8.8-3.1-10.3
	c-4.7-1.5-10.1-1-15.2-1.2c-0.1,0-0.2,1.8-0.3,2.7c-3.7-2-7.4-7.2-11.2,0c-4.2-0.4-8.3-0.9-12.5-1.3c-7.4,0.6-9,2.9-8.1,11.9
	c-1.4,1.9-2.8,3.8-4.2,5.7c-8.5-0.4-10.5,0.9-9.4,6.2c-2.2-0.4-4.8-1.7-6.4-0.9c-2,1-3.2,3.8-4.7,5.8c2,1,4,3,6,2.9
	c3.3,0,6.6-1.3,9.8-2c3.9-0.5,7.9-1,11.8-1.5c4.6,2.8,9.1,5.8,13.8,8.2c0.7,0.4,2.8-1.9,4.2-3c2.2,4.9,4.5,9.8,6.6,14.5
	c2.8,0,6.1,0,10.5,0c1.1-4.2,0.6-7.6-6.1-6.6c5.8-1.7,5.4-5.9,4.2-10.5c2,2,4.1,4,6.1,6c0.4-3.7,2.3-8.2,0.8-10.8
	c-2.6-4.6-1.9-6.9,2.1-9.2c3.3,2.8,6.6,5.7,9.9,8.5c-3.2-0.2-6.3-0.4-9.8-0.6c0,3.2,0,6.4,0,10c5.1-0.5,9.6-0.9,17-1.5
	c-3.4-3.7-5.4-5.9-7.5-8.1C144.2,145.2,142.5,141.1,140.9,138.5z M109.6,285.4c4.7-2.2,7.7-3.6,10.6-5c-1.4,3.5-2.8,6.9-4.2,10.2
	c7.7-0.4,18.7-17.2,18-29.8c-6.9,3.2-9.9,8.4-11.4,14.8C115.6,271.9,113.8,273,109.6,285.4z M138,229.1c-0.5,2.7-0.9,5.3-1.6,9
	c5.7-1.3,12.1,0.9,12.2-8.4c-2.1,0.7-3.7,1.3-5.3,1.9c-0.2-0.3-0.5-0.6-0.7-0.9c3-2.7,6-5.4,9-8.1c-0.6-0.9-1.2-1.8-1.8-2.8
	c-4.2,1.9-8.5,3.8-12.7,5.7c2.6-6.5,0.6-14,5.4-20.6c-3.4-0.5-5.8-0.9-8-1.2c-2.7,11.5-5.4,22.6-8,33.7c-0.4,1.3-1.3,2.7-1,3.9
	c0.6,2.4,1.8,4.7,2.7,7.1c1.7-0.8,3.5-1.6,5.2-2.3c-1.1-2.3-2-4.8-3.4-6.8c-0.7-1-2.4-1.2-3.7-1.7
	C134.1,239.8,136.7,235.4,138,229.1z M76.3,225.2c8.2,2.3,8.2,2.2,8.5-5.9c0.3-7.5,1-15,1-22.5c0-1.3-3-4.1-3.6-3.8
	c-2.4,1-4.5,2.8-6.2,4.8c-0.5,0.5,1,2.7,1.6,4.5c-3.6,0-6.7-0.3-9.6,0.1c-1.5,0.2-3.8,1.9-3.9,3c-0.2,4.5,0.2,9.1,0.5,13.7
	C66.9,225.4,79.3,210.2,76.3,225.2z M51.4,202.7c-1.2,1.8-2.5,3.8-3.8,5.7c2.9,1,5.9,3,8.7,2.8c2.2-0.1,5.4-2.5,6-4.5
	c0.9-2.9-0.2-6.4-0.5-11.1c-4.5,1.5-8.6,3-14.4,4.9C50.1,202,51,202.5,51.4,202.7z M154.1,206c1.5-3.9,0.4-8.9,0.4-13.4
	c-0.9-0.1-1.7-0.1-2.6-0.2c-0.5,3.1-1,6.2-1.2,7.1c-3.6,3.8-6,6.4-8.4,9c0.8,0.6,1.6,1.2,2.5,1.7C148.1,208.9,153.2,208.3,154.1,206
	z M110.5,224c0.6,3.6,1,7.9,1.4,7.9c4,0,8-0.7,12.1-1.2c-0.1-0.8-0.1-1.6-0.2-2.4C119.9,227.1,116.1,225.9,110.5,224z M135.7,250.3
	c4.5-2.9,8.1-5.3,11.8-7.7c-0.6-0.9-1.2-1.8-1.8-2.8C139.9,239.8,132.9,238.3,135.7,250.3z M141.8,192.5c-2.3-0.7-5-1.5-7.7-2.3
	c3.8,3.5-4.6,14.4,7.7,11.9C141.8,198.8,141.8,196.1,141.8,192.5z M52.3,212.6c-0.4,0.7-0.9,1.3-1.3,2c2.7,1.9,5.4,3.8,8,5.7
	c1.4-2,2.9-4.1,5.4-7.7C58.7,212.6,55.5,212.6,52.3,212.6z M113.7,186.9c3.1,0,5.8,0,9.2,0c-0.4-2.6-0.7-5.2-1-6.8
	c-3.2,0-5.6,0-9.1,0C113.1,181.9,113.4,184.3,113.7,186.9z M109.2,218.1c-1.1-1.4-2.5-4.1-3.3-3.9c-3.1,0.7-6,2.3-9,3.6
	c0.7,1.5,1.4,3.1,2.1,4.6C102.3,220.9,105.8,219.5,109.2,218.1z M74.9,236.6c-0.2,0.9-0.3,1.7-0.5,2.6c3.6,0.7,7.3,2.1,10.8,1.8
	c2.1-0.2,4-3.1,6-4.7c-0.6-0.6-1.2-1.1-1.9-1.7C84.5,235.2,79.7,235.9,74.9,236.6z"/>
</svg>
