<?xml version="1.0" encoding="utf-8"?>
<!-- Generator: Adobe Illustrator 19.0.0, SVG Export Plug-In . SVG Version: 6.00 Build 0)  -->
<svg version="1.1" id="Layer_1" xmlns="http://www.w3.org/2000/svg" xmlns:xlink="http://www.w3.org/1999/xlink" x="0px" y="0px"
	 viewBox="0 0 400 400" style="enable-background:new 0 0 400 400;" xml:space="preserve">
<style type="text/css">
	.st0{fill:#1AD000;}
</style>
<path id="XMLID_831_" class="st0" d="M82.2,153.2c9.6-27.8,22.1-53.9,44.8-73.5c18.5-16.1,38.7-30,60.6-41
	c14.1-7.1,28.8-12.7,44.5-15.4c31.9-5.4,56.9,6,73.4,33.8c9.8,16.5,14.6,34.8,18.3,53.5c3.1,15.4,4.4,30.8,0.5,46.3
	c-2.6,10.4-2.8,20.9-1.1,31.4c1.5,9.2,0.7,18.2-1.4,27.2c-2.5,10.4-4.6,20.9-7.1,31.3c-6.2,25.2-11.7,50.7-22.3,74.6
	c-4.3,9.6-9.4,18.9-15.1,27.7c-12.4,19.2-30.2,29.3-53.2,31.2c-36.8,3.1-69.8-5.4-98-29.8c-23.8-20.6-38.8-47-49.1-76.2
	c-3.1-8.7-3.8-17.9-1.9-27.1c0.7-3.7,0.6-7.6,0.3-11.4c-0.9-9.7-2.2-19.4-3.3-29.1C72.6,188.2,76.2,170.5,82.2,153.2z M205.1,81.2
	c-0.7-0.7-2.5-1.1-3.6-0.8c-5.2,1.5-10.4,3.3-14.5,4.6c4.7,5.3,9.4,10.7,14.2,16c0.4,0.4,1.5,0.4,2.1,0.2c5.3-1.1,10.7-2.2,17.3-3.6
	C214.9,91.6,210.1,86.3,205.1,81.2z M228.1,249.9c-3-3.4-0.5-4.5,2.2-5.4c5.7-2,13.1-1,18,2.9c-1.9-0.3-3.1-0.7-4.2-0.6
	c-1.4,0.2-2.7,0.8-4,1.3c0.6,1.3,0.8,3,1.8,3.9c3.2,2.9,7.2,4.5,11.4,2.9c5.4-2,10.6-4.5,16.6-7.1c-7.3-2.5-13.4-5-19.7-6.5
	c-3.5-0.8-7.6-0.4-11.3,0.1c-8.4,1.2-16.4,0.5-23.6-4.3C215.2,246.2,219.6,250.6,228.1,249.9z M214.2,118.4c0.5,0.7,1.3,1.4,2.1,1.7
	c5.5,1.6,11.1,3,17.4,4.7c-2.6-9.1-6.6-16.5-11.4-23.5c-0.4-0.6-1.9-1-2.8-0.8c-5.1,0.9-10.2,1.9-15.8,3
	C207.5,108.9,210.8,113.7,214.2,118.4z M291.3,80.9c-0.2-0.6-1.1-1.2-1.7-1.3c-5-1.3-10-2.6-15.5-4c2.7,7.8,5,14.8,7.5,21.8
	c0.3,0.7,1.1,1.5,1.9,1.7c4.8,1.5,9.6,2.8,15.9,4.7C296.5,95.4,293.9,88.1,291.3,80.9z M251.8,93.3c0.6,1,1.9,2,3,2.2
	c4.1,0.5,8.2,0.6,14,1c-4.1-7.9-7.6-14.8-11.2-21.6c-0.3-0.6-1.6-0.9-2.4-0.9c-4.4-0.1-8.8,0-13.7,0C245.1,80.7,248.4,87,251.8,93.3
	z M134.5,204.7c-0.7,0.1-2,0.7-2,0.9c0.4,3.1,0.6,6.3,1.7,9.1c0.5,1.3,2.7,2.8,4.2,2.8c5.9-0.1,11.9-0.8,17.8-1
	c2.6-0.1,3.6-1,3.5-3.5c-0.1-3.3,0-6.5,0-10.4C150.5,203.3,142.5,203.9,134.5,204.7z M181.9,106.2c0.6,0.4,1.7,0.5,2.5,0.3
	c4.7-1.3,9.3-2.7,15.1-4.4c-5.7-5.1-10.8-9.8-16-14.2c-0.6-0.5-2.1-0.5-2.9-0.2c-5.1,2.2-10.2,4.5-15.5,6.9
	C170.9,98.7,176.4,102.5,181.9,106.2z M235.9,123.8c0.7,1.4,2.9,2.3,4.6,3.1c2.1,0.9,4.3,1.4,7.1,2.2c-0.1-1.4,0.1-2.6-0.2-3.6
	c-3-8.3-6-16.6-9.2-24.8c-0.4-1-2.2-2.2-3.3-2.2c-3.3,0.1-6.6,0.7-9.7,1.1C228.9,108,232.2,116,235.9,123.8z M251.8,128.7
	c8.8-1.6,9.1-1.9,6.7-10.5c-1.5-5.3-3.7-10.4-5.1-15.7c-1.1-4.1-3.4-5.3-7.3-4.8c-1.9,0.3-3.8,0.2-5.7,0.4
	c3.7,10.4,7.2,20.4,10.7,30.5C251.2,128.6,251.5,128.8,251.8,128.7z M163.2,97.6c-2.8-0.8-7.5,2.2-10.4,4.7
	c-2.7,2.3-2.3,6.2,0.2,9.1c2.6,3,5.6,4.8,10,2.9c5.3-2.4,10.8-4.2,16.2-6.2c0.2-0.5,0.4-0.9,0.6-1.4
	C174.2,103.5,169.1,99.3,163.2,97.6z M221.4,95.8c0.8,0.9,2.6,1.3,4,1.3c3.2-0.1,6.4-0.6,11-1.2c-4.9-6.9-9.2-13.2-13.7-19.3
	c-0.4-0.5-1.7-0.8-2.5-0.6c-4.3,0.8-8.6,1.8-13.4,2.8C212.1,85,216.6,90.5,221.4,95.8z M263,125c2.2-0.9,4.5-1.4,6.4-2.6
	c1-0.6,2.2-2.3,2.1-3.4c-0.5-5.9-1.2-11.8-2.1-17.7c-0.2-1.1-1.8-2.6-2.9-2.7c-3.9-0.6-7.8-0.6-12.1-0.9
	C257.3,107,260.1,115.8,263,125z M271.3,71.3c0.6,0.9,1.7,1.9,2.7,2.2c4.8,1.2,9.7,2.2,16.1,3.6c-4.1-6.9-7.2-13-11.2-18.4
	c-1.2-1.7-4.6-1.8-7.1-2.4c-3.1-0.7-6.3-1-10.1-1.6C265.2,60.8,268.2,66.1,271.3,71.3z M161.9,218.4c-0.3,4.6-0.5,9.1-0.8,14.5
	c6.4-0.4,12.4-0.7,18.3-1.2c0.6-0.1,1.6-1.4,1.7-2.2c0.2-3.9,0.1-7.8,0.1-12.3C174.5,217.6,168.5,218,161.9,218.4z M237.7,94.6
	c0.5,0.8,2,1.2,3.1,1.2c2.9,0,5.7-0.2,9.8-0.5c-4.1-7.2-7.7-13.8-11.5-20.3c-0.4-0.7-2.1-1-3.2-0.9c-3.3,0.2-6.7,0.6-10.6,1
	C229.7,82.1,233.6,88.4,237.7,94.6z M252.2,343.5c1.1,0.1,2.8-0.7,3.3-1.6c2.9-4.8,5.6-9.7,8.4-14.7c-11.3-5.3-16-2.5-23.9,14.6
	C244.4,342.5,248.3,343.2,252.2,343.5z M203,76c0.7,0.6,2,0.9,2.9,0.7c4.6-0.9,9.1-2,14.7-3.3c-4.4-4.4-8.2-8.3-12.1-12
	c-0.6-0.6-2-0.7-2.9-0.5c-4.9,1.5-9.8,3.2-15.3,5C195,69.6,198.9,72.9,203,76z M162,202.8c0,4.4,0,8.5,0,13.3
	c6.5-0.4,12.8-0.7,19.4-1.1c0-4.5,0-8.6,0-13.4C174.6,202,168.5,202.4,162,202.8z M238.4,232.6c3.5-2,3.7-5.5,0.8-8.4
	c-3.4-3.5-7.7-4.3-12.2-2.8c-4.7,1.6-7.2,5.5-8.4,10.1c-0.2,0.9,1.3,2.7,2.4,3.2c2.1,0.8,4.4,1,7.8,1.6
	C231.4,235.3,235.2,234.4,238.4,232.6z M238.7,70c0.6,0.8,2,1.4,3,1.4c4.2,0.2,8.5,0.1,14.3,0.1c-5-6.2-9-11.6-13.6-16.5
	c-0.9-1-3.8-0.4-5.7-0.2c-2.6,0.2-5.1,0.6-8.5,1C232.1,61,235.3,65.6,238.7,70z M269.5,263.4c-1,4.4-2.1,9-3,13.5
	c-0.1,0.8,0.7,1.7,1.2,2.6c0.1,0.2,0.5,0.3,0.8,0.4c9.2,5.2,12,4.1,14.4-5.9c0.6-2.3,1-4.7,1.4-6.9
	C279.2,265.8,274.5,264.7,269.5,263.4z M189.1,230.9c12.1-1.6,13.4-3.4,11.1-16.3c-4.8,0.7-9.6,1.3-14.3,2.2c-0.8,0.2-2,1.5-2,2.3
	c-0.2,3.9-0.1,7.8-0.1,12.3C185.7,231.2,187.4,231.1,189.1,230.9z M222.4,72.3c0.5,0.5,1.7,0.8,2.5,0.7c3.8-0.4,7.5-0.9,12.2-1.6
	c-3.8-5-7-9.5-10.5-13.8c-0.6-0.7-2.2-1.2-3.2-1c-4.2,0.7-8.3,1.8-13,2.8C214.7,64.1,218.5,68.2,222.4,72.3z M162.9,189.1
	c-0.7,0.1-1.6,1.3-1.7,2.1c-1.2,7.7,0.1,9.2,7.9,8.8c3.2-0.1,6.4-0.1,9.6-0.6c1-0.2,2.5-1.8,2.5-2.7c0.1-3.1-0.4-6.3-0.7-10.1
	C174.3,187.5,168.5,188.2,162.9,189.1z M158.9,218.3c-6.9,0.5-13.8,0.9-20.7,1.4c-0.3,0.4-0.5,0.8-0.8,1.2c3.8,4,7.1,8.5,11.4,11.6
	c2.1,1.5,6.1,0.6,10.1,0.8C158.9,228,158.9,223.5,158.9,218.3z M237.2,283.2c-2.8-2.3-5.8-3.1-9.4-2.3c-7.3,1.7-14.6,3.2-21.9,4.8
	c-1.5,0.3-2.9,0.8-5,1.4c0.7,0.5,1,0.9,1.4,0.9c10,0,20.1-0.1,30.1,0.1c2.8,0,6.1,0,8.3,1.4c4.4,2.8,7.6,1.4,11.2-1.8
	C245.3,291.2,241.4,286.7,237.2,283.2z M258.8,51c0.6,0.7,1.8,1.1,2.8,1.2c4.6,0.8,9.3,1.5,14,2.2c-5.2-13-13.4-18.2-27.7-16.9
	C251.7,42.4,255.2,46.8,258.8,51z M190.1,213.9c11.9-1.6,12.4-2.3,9.8-14.9c-4.8,0.7-9.6,1.2-14.4,2.1c-0.7,0.1-1.7,1.4-1.7,2.1
	c-0.2,3.6-0.1,7.3-0.1,11.4C186.5,214.3,188.3,214.1,190.1,213.9z M305.3,86.5c-1.3-2.8-6.5-3.7-10.8-5.9c2.4,8.6,3.8,16.2,6.9,23.2
	c1.2,2.7,6.1,3.8,9.2,5.7c0.5-0.3,1-0.7,1.5-1C310,101.1,308.5,93.4,305.3,86.5z M299.6,115.9c0.9-8.6,0.5-9.3-7.6-12
	c-2.8-0.9-5.8-1.6-9-2.5c0.4,5.6,0.8,10.7,1.2,16c5,0,9.9,0,14.9,0C299.3,116.4,299.5,116.1,299.6,115.9z M214.1,44.3
	c-0.8-0.6-2.3-1-3.2-0.7c-4.5,1.7-9,3.6-13.3,5.4c7,9.9,15.7,9.1,26.5,3.2C220.8,49.6,217.5,46.8,214.1,44.3z M203.8,149.3
	c-0.9-0.6-1.8-1.2-2.6-1.9c-16.1-12.8-38.8-10.6-50.2,5.5C168.3,143.9,185.3,140.1,203.8,149.3z M268.4,326.5c-1,0.1-2.2,1.1-2.7,2
	c-2.7,4.7-5.2,9.6-7.8,14.4c7.3,2.3,12.3,0.5,15.5-5.8c1.7-3.5,3.3-7,5.2-11.1C274.7,326.1,271.5,326.1,268.4,326.5z M272.6,247.8
	c-0.4,1.9-1.1,3.8-1.3,5.7c-0.3,2.4-1,6.7-0.1,7c3.9,1.8,8.3,2.5,12.6,3.5c0.4,0.1,1.3-0.9,1.4-1.5c0.8-3.8,1.5-7.7,2.3-11.6
	C282.3,249.9,277.6,248.9,272.6,247.8z M201.9,105.4c-0.5-0.6-2-1-2.8-0.8c-4.5,1.2-9,2.6-13.9,4c3.4,4.5,6.3,8,12.2,8.1
	c4.5,0,8.9,1.4,13.4,2.1c0.2-0.3,0.5-0.6,0.7-0.9C208.2,113.7,205.1,109.5,201.9,105.4z M277.6,305.1c-0.8,0.1-1.9,0.6-2.2,1.2
	c-2.5,5.7-4.8,11.4-7.4,17.9c3.9-0.2,7-0.3,10.2-0.7c0.8-0.1,1.9-1,2.2-1.8c2.2-5.5,4.2-11,6.5-17.2
	C283.2,304.8,280.4,304.9,277.6,305.1z M257.9,70.1c2.2,2.2,6.8,1.9,10.3,2.8c0.3-0.5,0.6-0.9,0.9-1.4c-3.5-5.5-6.7-11.1-10.5-16.3
	c-1-1.3-4.2-1.1-6.3-1.3c-1.9-0.2-3.9,0-6.8,0C249.9,59.9,253.3,65.7,257.9,70.1z M270.1,94.7c1.2,2.1,5.1,2.7,7.8,4
	c0.6-0.5,1.1-0.9,1.7-1.4c-2.9-7.1-5.1-14.5-8.9-21c-1.2-2-6.3-1.8-10.1-2.6C264,81.5,266.6,88.4,270.1,94.7z M242.7,50.9
	c3.3,1.9,8.2,1,12.4,1.4c0.3-0.4,0.6-0.8,0.9-1.3c-3.8-4.4-6.9-9.8-11.6-12.7c-3.3-2-8.7-0.4-13.2-0.4c-0.2,0.5-0.4,1-0.7,1.5
	C234.5,43.4,238,48.1,242.7,50.9z M183.3,195.6c0.1,0.9,0.2,1.8,0.3,3.6c5-0.8,9.9-1.5,14.7-2.4c0.7-0.1,1.7-1.5,1.7-2.2
	c0-3.1-0.3-6.3-0.6-9.9c-5.7,0.6-10.9,1.1-16.6,1.8C183,189.8,183.2,192.7,183.3,195.6z M180.8,234.1c-6.4,0.4-12.3,0.6-18.1,1.1
	c-2.2,0.2-3.5,5.2-1.5,7.1c1.7,1.6,4.2,3,6.4,3.2c3.7,0.3,7.6-0.4,12-0.7C180.1,241.2,180.4,237.9,180.8,234.1z M275.3,245.8
	c11.3,5,14.1,2.9,15.6-12.1c-4.2-0.9-8.4-1.8-12.2-2.6C277.6,235.9,276.5,240.6,275.3,245.8C275.1,245.6,275.2,245.7,275.3,245.8z
	 M205.2,197.3c-1.1,0.5-2.3,2-2.4,3.1c-0.3,3.3-0.1,6.6-0.1,10c12-0.7,17.1-7.4,14.4-18.4C212.9,193.8,208.9,195.4,205.2,197.3z
	 M158.7,189.8c-9.6,2.2-18.8,3.6-25.8,12.6c9.4-0.7,17.6-1.3,26.5-2C159.1,196.6,158.9,193.5,158.7,189.8z M227.4,40
	c-2.7-1.5-7.6,0.8-12.4,1.6c4,4.3,7.1,7.6,10.3,10.8c0.7,0.7,1.8,1.2,2.7,1.1c3.7-0.4,7.4-1,11.6-1.6C235.3,47.6,232,42.6,227.4,40z
	 M292.6,216.6c0.9,0.1,2.4-0.9,2.7-1.7c1-3.2,1.5-6.4,2.3-10c-3.1-0.3-5.7-0.4-8.2-0.7c-2.4-0.3-4.7-0.9-7.3-1.5
	c-0.7,3.9-1.4,7.6-2.2,12.2C284.3,215.5,288.4,216.2,292.6,216.6z M188.5,257.3c9.8-1.4,10-1.7,9.9-12.4c-5,0.7-9.9,1.2-14.8,2
	c-0.8,0.1-1.9,1.5-2.1,2.4c-0.6,2.7-0.9,5.4-1.4,8.9C183.4,257.9,186,257.7,188.5,257.3z M205,213c-1,0.5-1.9,1.9-2,3
	c-0.2,3.8-0.1,7.5-0.1,11.3c8.7-0.6,14.6-8.8,14.3-19.9C212.9,209.4,208.9,211.1,205,213z M187.2,233.2c-3.2,0.2-4.8,1.4-4.7,4.7
	c0.1,2-0.2,3.9-0.4,7c5.6-0.9,10.8-1.6,15.8-2.7c0.7-0.2,1.3-2.1,1.5-3.3c0.4-2.2,0.4-4.5,0.6-7.4
	C195.3,232.1,191.3,232.9,187.2,233.2z M240.7,344c-4.6-0.7-4.8,3.9-6.9,6.2c-0.5,0.6,0.5,3.4,1.6,4.5c4.6,4.7,8.9,4.3,12.6-1
	c1.6-2.3,3.1-4.7,4.9-7.4C248.4,345.4,244.5,344.6,240.7,344z M220.9,366.6c-1.1-0.1-2.4,0.4-3.3,1c-4.2,2.7-8.3,5.6-12.3,8.4
	c7.8,3.2,22.9-0.1,29.9-7.4C229.9,367.8,225.4,367.1,220.9,366.6z M279.3,217.3c-0.7,2.7-1.5,5.4-1.9,8.2c-0.1,0.9,1,2.7,1.8,3
	c4,1.3,8.1,2.2,12.4,3.3c1-4.6,1.9-8.2,2.7-12.2C289.1,218.7,284.4,218,279.3,217.3z M292.2,76.4c2.2,2.9,6.8,3.9,10.8,6
	c-1.9-12.6-9.2-20.9-20-22.8C286.2,65.6,288.4,71.6,292.2,76.4z M279.8,293.4c-0.9,2.9-1.8,5.7-2.9,9c3,0,5.7,0.2,8.3-0.1
	c1.1-0.1,2.5-1.2,2.9-2.2c1.6-4.7,2.8-9.5,4.3-14.7C282.3,285,282.3,285,279.8,293.4z M179.1,81.1c1.8,2.6,4,3.3,7,2
	c4.7-1.9,9.6-3.4,15.5-5.5c-4.5-3.5-8.4-6.5-12.5-9.7C185.5,72.7,182.3,76.9,179.1,81.1z M261.3,309.8c1.6,0.4,4,0.9,4.5,2
	c0.5,1.3-0.2,3.7-1.3,4.9c-1.9,2.3-4.4,4-6.8,6c6.2,2.5,7.3,2.1,9.8-3.5c2-4.4,3.8-8.9,5.9-13.8c-4.6-0.8-8.8-2.1-12.9-2
	c-1.7,0.1-3.2,3.3-4.8,5.2c0.4,0.4,0.7,0.7,1.1,1.1C258.3,309.7,259.9,309.4,261.3,309.8z M288.5,283.2c3.4,0.1,5.3-1.4,5.7-4.9
	c0.5-3.9,1.5-7.7,2.3-11.4c-0.7-0.4-0.9-0.7-1.2-0.7c-8.5,0-8.5,0-10.3,8.2c-0.6,2.8-1.3,5.6-2.1,8.8
	C285.2,283.2,286.8,283.1,288.5,283.2z M281.6,112.1c0-1.4-0.2-2.7-0.3-4.1c-0.9-7.8-0.9-7.8-9.4-8.4c0.8,6.9,1.6,13.7,2.4,20.5
	C281.5,119,281.8,118.8,281.6,112.1z M184.7,373.9c8.4,4.2,19.2,1.9,28.9-6.8C203.5,367.6,192.8,365.7,184.7,373.9z M316.2,92.7
	c-0.7-2.2-4-3.6-6.2-5.4c-0.4,0.3-0.8,0.5-1.2,0.8c0.7,2.3,1.4,4.7,2,7c0.9,3.7,1.8,7.4,2.5,11.1c1,6,1,6,8.3,9
	C319.8,107,318.5,99.7,316.2,92.7z M196.7,258.5c-5.5,0.7-10.4,1.1-15.3,1.9c-1,0.2-2.2,1.6-2.4,2.6s0.5,2.9,1.3,3.3
	c4.2,1.8,8.6,3.3,13.6,5.1C195,266.4,195.8,262.7,196.7,258.5z M269.2,40.3c3.2,9.3,12.5,17.2,21.9,18.7
	C284.8,46.3,279.5,41.8,269.2,40.3z M281.9,178.5c0,2.4-0.2,5.3,0.1,8.2c0.1,1,1.2,2.2,2.1,2.6c2.1,0.9,4.3,1.7,6.5,2.1
	c7.3,1.4,8.1,0.4,6.8-6.5C292,182.7,287,180.7,281.9,178.5z M303.3,232.8c-3.2,0.2-6.3,0.4-9.5,0.5c-0.8,3.3-1.5,6.3-2.1,9.2
	c-0.3,1.6-0.6,3.3-0.9,5.3C302.2,247.1,300,250.1,303.3,232.8z M212,191.8c5.4-3,5.7-4,3.3-10.4c-4.3,1-8.7,1.9-13.6,3
	c0.3,3.6,0.5,7.1,0.9,11.6C206.3,194.4,209.3,193.3,212,191.8z M137.1,147.6c-1.2,1.1-1.5,3.3-2.1,5c2.1,0,4.5,0.7,6.1-0.1
	c2.5-1.3,4.3-3.9,6.6-5.6c4.7-3.5,9.6-6.8,14.8-10.5C153,138.4,144.2,141.2,137.1,147.6z M297.4,202.1c0.1-2.4,0.3-4.8,0.4-7.2
	c-5.4-1-10.2-2-15.5-3C280.7,201,284.3,203.5,297.4,202.1z M210,310.2c2.3,2.1,3.6,4.2,5.3,4.6c3.8,0.9,7.8,1.5,11.6,1.1
	c7.7-0.8,15.3-2.3,23-3.5c0-0.1,0-0.2,0-0.3C237.2,311.5,224.4,310.9,210,310.2z M229.5,195.3c0.9-0.5,1.9-2.2,1.8-3.1
	c-0.4-3.2-1.3-6.3-2.1-9.6c-9.2,3.2-10.3,5.5-8.7,17C223.5,198.2,226.6,197,229.5,195.3z M292.5,264.1c3.4,0,5.3-1.2,5.5-4.9
	c0.2-3,1-6,1.6-9c-11.2-0.1-10-1.9-12.1,13.9C289.5,264.1,291,264,292.5,264.1z M236.9,128.4c1.4,5.1,2.5,9.6,4.1,14.1
	c0.2,0.6,2.3,0.9,3.5,0.9c1.6,0,3.3-0.4,5.2-0.6C248.9,131.3,248.9,131.3,236.9,128.4z M267.2,238c3-9.2-2.3-14.3-14-13.5
	C254.8,232.9,258.7,236.5,267.2,238z M261,143.8c0-4.9,0-9.8,0-15.2c-3.6,1-6.5,1.7-9.6,2.6C250.7,142.5,251.3,143.2,261,143.8z
	 M268.3,346.3c-10.6-2-13.6-0.3-20.3,12.1C256.6,356.1,264.3,354.5,268.3,346.3z M297.9,215.7c9.3,1.6,13.7-4.1,11-14.3
	C299.9,202.3,297.9,208.3,297.9,215.7z M259.7,35.6c-5.5-8.3-12.8-10.8-22-8.3C242.5,36.7,251.4,34.7,259.7,35.6z M294.8,230.6
	c10.9,0.3,9.4,0.9,11.5-12.5C295.9,218.1,295.1,219,294.8,230.6z M257,173.6c0.8,2.1,4,3.2,6.1,4.8c0.4-0.3,0.8-0.6,1.1-0.9
	c-0.4-4.6-0.1-9.4-1.4-13.7c-0.6-1.9-4.4-2.8-6.8-4.2c-0.4,0.5-0.8,1-1.2,1.6C255.5,165.3,255.6,169.7,257,173.6z M208.8,255.6
	c-8.8,0.2-10.4,2.1-12.1,14.6C204.5,270.2,206.5,267.7,208.8,255.6z M309.9,148.2c-4.9-4.3-11.1-4.7-17.5-0.7
	c7.5,2.7,16.8,1.9,19,12.3C314.8,154.7,313.3,151.2,309.9,148.2z M252.8,162.4c-0.5-2.8-2.1-3.1-7.9-1.6c0.9,4.7,1.8,9.4,2.7,14.4
	c2.3,0,4.5,0,7.1,0C254.1,170.8,253.6,166.6,252.8,162.4z M299.3,67.1c5.2,6.3,4,17.2,15.3,20C311.5,78.3,309.6,69.6,299.3,67.1z
	 M221.2,30.4c4.8,8.9,12.3,4.8,19.9,4.4C234.1,26.7,231.2,26.1,221.2,30.4z M305.6,66.3c-5.3-8.4-9.3-17-19.8-19.6
	C291.8,53.5,294.3,63.7,305.6,66.3z M163,367.2c7.1,6.2,17,6.7,25.2,0.8C179.8,369.3,171.7,362.6,163,367.2z M262.7,158.8
	c-0.2-3.5-0.1-7-0.8-10.3c-0.2-1.1-2.2-2.1-3.6-2.6c-1.5-0.5-3.3-0.4-5.3-0.7C253,157.4,253.7,158.3,262.7,158.8z M200,255.4
	c3.6-1.4,7.8-1.9,9.6-4.2c1.5-2,0.3-6.1,0.3-9.7C200.4,244.1,200.4,244.1,200,255.4z M310.2,214c7.1,0.4,7.7,0,8.8-6
	c0.4-2.4,0.7-4.8,1.1-7.6c-2.9,0-5.3,0-7.8,0C311.5,205.4,310.9,209.7,310.2,214z M312.2,239.2c0.2-2.5,1.1-5,1.7-7.5
	c-6.6-0.9-7.6-0.2-9,5.6c-0.7,2.9-1.2,5.8-1.9,8.8C309.3,246.9,311.7,244.4,312.2,239.2z M280.7,170.9c1.2,2.2,1.6,4.4,2.7,4.8
	c7.7,2.5,15.4,2.5,22.4-2.3c0.4-0.3,0.7-0.6,0.9-1c0.1-0.2,0.1-0.6,0.3-2.2C298.5,176.4,290.3,170,280.7,170.9z M154.4,356.1
	c-2.5-0.9-6,1.3-9,2.7c6.2,3.5,11.4,10,19.9,4.8C161.6,360.9,158.4,357.5,154.4,356.1z M150.8,353.3c-6.2-4.1-12.5-6.9-20.8-5.4
	C142.2,358.6,142,358.6,150.8,353.3z M308,256.8c0.3-2.8,1.2-5.5,1.9-8.3c-7.2-0.4-7.3-0.3-8.7,5.8c-0.6,2.6-1,5.3-1.6,8.2
	C304.8,263.2,307.5,261.6,308,256.8z M252.3,208.9c2.2,0.2,4.3,0.4,7.1,0.7c-0.5-4.5-0.4-8.6-1.7-12.4c-0.5-1.6-3.7-2.3-5.6-3.5
	c-0.4,0.5-0.8,0.9-1.2,1.4C251.3,199.6,251.8,204.1,252.3,208.9z M312.5,197.7c2.2,0,4.4,0,7.3,0c-0.5-5.2-1-10.1-1.6-15.3
	C311.5,184.6,311.3,186.8,312.5,197.7z M298,270.6c-0.3,3.6-1.4,7.1-2.2,11c4,0.8,6.2-0.3,7-4.4c0.7-4,2-7.9,3.1-12.2
	C300.7,264.2,298.4,265.9,298,270.6z M313.4,138.5c0.4,1,2.5,2.5,2.7,2.3c1.6-1.3,3.7-2.7,4.4-4.5c2.2-5.7,0.9-7.5-7.8-11.4
	c0.6,3.1,1.1,5.4,1.6,7.9C311.9,133.7,312.5,136.2,313.4,138.5z M299.3,119.2c-5,0.3-9.6,0.2-14.1,1c-1.2,0.2-1.8,3.4-3,5.8
	c6.1,0,11,0,16.5,0C299,123.7,299.1,122.1,299.3,119.2z M250.4,192.1c2.3,0.2,4.2,0.3,6.8,0.5c-0.6-4.5-0.7-8.8-2.1-12.7
	c-0.5-1.4-3.8-1.9-5.9-2.8c-0.4,0.5-0.7,1-1.1,1.5C248.9,183.1,249.6,187.5,250.4,192.1z M241.8,145.9c0.9,4.1,1.6,7.8,2.4,11.7
	c2.6,0,4.9,0,7.9,0c-0.6-4.2-1.2-8-1.8-12.2C247.3,145.5,244.8,145.7,241.8,145.9z M263,222.8c-3.4-12-3.5-12-10.6-11.1
	C250.5,220.6,252.1,222.4,263,222.8z M301.9,117.8c2.9,1,5.8,2,8.8,3.1c2.2-8.4,2.2-9.2-8.8-12.6
	C301.9,111.3,301.9,114.4,301.9,117.8z M288.5,306.8c-2.2,5-3.8,10.3-6.2,16.8c2.5-1.1,4.9-1.4,5.5-2.5c2.6-5.4,4.7-11.1,6.9-16.7
	c-0.5-0.5-0.9-0.9-1.4-1.4C291.7,304.3,289.2,305.2,288.5,306.8z M307.2,229c7.7,0.5,8.3-0.2,9.7-12.6
	C308.7,216.6,309.1,214.9,307.2,229z M231.8,198.4c-9.5,0.4-12,4.2-12.7,16.7c0.5,0.3,1,0.6,1.5,0.8
	C224.1,210.4,227.7,204.8,231.8,198.4z M296.8,297.6c1.1-4.4,2.5-8.7,3.9-13.3c-4.1-0.8-6.1,0.3-6.9,4.4s-2.2,8.2-3.4,12.6
	C294.1,302.1,295.9,300.8,296.8,297.6z M170.6,247.7c-0.9,0-1.8,0.2-3,0.4c1.5,3.3,2.6,6.4,4.2,9.2c0.5,0.8,2.4,1.3,3.5,1.1
	c1-0.2,2.4-1.3,2.7-2.3c0.7-2.6,0.9-5.4,1.5-8.8C176,247.5,173.3,247.6,170.6,247.7z M264.8,183.1c-0.4-3.9-3.7-3.8-6.4-4.5
	c-1.6,8.5,1,14.6,7.2,16.3C265.3,190.6,265.2,186.8,264.8,183.1z M207.5,34.8c4.1,6,6.7,6.3,16.2,2.2
	C218.6,30.4,217,30.2,207.5,34.8z M193.4,50.2c-0.8,4.8-1.3,8.5-2,12.9c4.5-1.4,8.7-2.8,14.4-4.6C201.1,55.4,197.5,53,193.4,50.2z
	 M300.2,184.6c-1.1,1.2-0.2,4.3-0.2,6.6c7.8-0.3,10.7-4.4,9.3-13C305.9,180.5,302.5,182.1,300.2,184.6z M274.5,231.6
	c0.3-6.5-6.4-17.3-12-18.6C263.4,221.6,269.1,226.5,274.5,231.6z M261.3,295.3c-0.6,1.5-1.2,3.2-2,5.6c4.5,0.6,8.6,1.6,12.7,1.5
	c1.5,0,3-2.6,5-4.5C270.8,296.9,266.3,296.2,261.3,295.3z M256.1,27.9c5.1,6.2,10.6,10.8,19.1,10.8
	C270.4,32.3,264.7,28.1,256.1,27.9z M203.5,36.9c-4.5,1.8-7.8,5.4-9.7,11.3c5.9-2.5,11-4.7,17.2-7.3
	C207.8,39.2,204.9,36.3,203.5,36.9z M261.7,207.8c0.5,1.8,3,3,5.1,5c0.9-11.4-0.6-15.3-6.5-16.6
	C260.7,200.4,260.7,204.2,261.7,207.8z M300.3,201.5c8.6-1,10-2.6,9.2-11.5C305.5,193.7,296.8,192.6,300.3,201.5z M316.4,166.9
	c-3.8,4.6-5.8,9.3-4,15.4C318.5,179.2,320.1,172.9,316.4,166.9z M285.9,325.9c-5.7-1.5-3.9-0.9-11.4,16.2
	C281.1,338.7,282.3,331.5,285.9,325.9z M321.1,126.5c1.6-7.1,0.7-8.7-6.8-11.9C313.2,122.9,313.2,122.9,321.1,126.5z M266.2,174.2
	c1.2,7.4-1,14.2,5.6,19.5C273.7,186.1,271.6,180.4,266.2,174.2z M177,111.2c-2.8,1.4-5.9,2.2-8.7,3.9c6,0,12,0,18.6,0
	C184.4,110.3,181.5,108.9,177,111.2z M298.7,164.9c1.2,0.2,2.6-0.8,4-1.2c-0.6-1.6-0.7-3.8-1.9-4.6c-4.1-2.7-7.3-0.3-11.2,3.1
	C293.3,163.3,296,164.4,298.7,164.9z M207.9,239.4c-0.3-3.4-0.5-6.7-0.8-10c-5.4,1-5.7,1.6-5.3,12
	C204.1,240.7,206,240.1,207.9,239.4z M273.8,199.4c2.8,4.4-4,10.2,3.4,13.6C281,203.5,280.6,201.4,273.8,199.4z M270.9,125
	c-8.5,1.3-9.7,3.8-6.5,15C266.6,135,268.8,130,270.9,125z M231,337.7c2.8,1.4,4.3,2.2,6.5,3.3c2.2-3.7,4.3-7.3,6.5-10.9
	c-0.4-0.4-0.8-0.8-1.2-1.2C239.1,331.6,235.5,334.3,231,337.7z M301.1,126.2c3.1,1,5.9,1.9,8.7,2.8c2.2-5.7,1.7-6.3-8.1-8.5
	C301.5,122.5,301.3,124.3,301.1,126.2z M275.1,186.9c-1.7,8.2-1.2,9.5,4.4,11.6C279.7,193.7,281.3,188.9,275.1,186.9z M279.5,174.1
	c-2.2,1.7-4.6,2.6-5,4c-1.1,3.7,1.1,6.2,5,8.3C279.5,182.2,279.5,178.8,279.5,174.1z M194.6,166.5c-8.5,0-17.1,0-25.6,0
	C177.6,169.6,186.1,169.1,194.6,166.5z M267.6,194c0.7,5,1.4,9.6,2.1,14.1C273.7,202,272.8,197.1,267.6,194z M274.4,130.5
	c6.5-2.2,7-3,6.1-9.1C274.6,123.3,273.7,124.7,274.4,130.5z M226.4,180.5c-1.7-2.5-3.6-4.1-6-1.8c-1.3,1.3-1.7,3.6-2.5,5.4
	c0.6,0.3,1.1,0.6,1.7,0.9C221.8,183.6,224.1,182.1,226.4,180.5z M274,223.4c3.9-6.8,3.8-7.4-2.6-10.5
	C272.4,217.2,273.2,220.3,274,223.4z M256.4,302.2c-1.7-0.7-3-1.2-5.5-2.2c0.3,3.7,0.5,6.5,0.8,9.3c0.7,0,1.3,0.1,2,0.1
	C254.5,307.2,255.3,304.9,256.4,302.2z M286.5,44.4c0.3-0.5,0.7-0.9,1-1.4c-3.6-2.7-7.1-5.4-10.7-8c-0.4,0.5-0.8,1-1.1,1.5
	C279.3,39,282.9,41.7,286.5,44.4z M266.6,141.8c0.3,0.1,0.7,0.2,1,0.4c1.6-3.7,3.2-7.3,4.8-11c-0.7-0.2-1.4-0.5-2.1-0.7
	C269.2,134.2,267.9,138,266.6,141.8z M232.7,374.7c3.9-0.9,6.6-1.5,10.1-2.3C238.3,368.7,236.1,371.3,232.7,374.7z M270.1,238.9
	c1.6-0.7,3.6-1.5,3.5-1.6c-0.5-2-1.4-4-2.2-6c-0.3,0.1-0.7,0.2-1,0.3C270.4,233.8,270.3,235.9,270.1,238.9z M233.3,346.7
	c0.8-1.1,1.5-2.2,2.6-3.8c-1.5-0.7-2.7-1.3-4.8-2.3c0.2,2.8,0.4,4.8,0.6,7.2C232.6,347.2,233.1,347,233.3,346.7z M179.2,85.6
	c-2.6-3.1-2.6-3.1-8.2,3.7C173.8,88.1,176.5,86.8,179.2,85.6z M266.2,268c-0.4-0.1-0.8-0.2-1.2-0.3c-1.1,2.7-4.6,4.7-0.9,8.7
	C264.8,273.6,265.5,270.8,266.2,268z"/>
</svg>
