<?xml version="1.0" encoding="utf-8"?>
<!-- Generator: Adobe Illustrator 19.0.0, SVG Export Plug-In . SVG Version: 6.00 Build 0)  -->
<svg version="1.1" id="Layer_1" xmlns="http://www.w3.org/2000/svg" xmlns:xlink="http://www.w3.org/1999/xlink" x="0px" y="0px"
	 viewBox="-199 0 600 400" style="enable-background:new -199 0 600 400;" xml:space="preserve">
<style type="text/css">
	.st0{fill:#1AD000;}
</style>
<path id="XMLID_4722_" class="st0" d="M260.2,105.2c-5.5-5.9-10.1-10.9-14.8-15.8c-0.7-0.7-2.4-1-3.4-0.7c-5,1.4-10,3.1-13.9,4.4
	c4.5,5.1,9,10.2,13.6,15.3c0.4,0.4,1.4,0.4,2.1,0.2C248.8,107.6,253.9,106.5,260.2,105.2z"/>
<path id="XMLID_4721_" class="st0" d="M255,238.7c0,8.6,4.2,12.8,12.4,12.1c-2.9-3.3-0.5-4.3,2.1-5.2c5.5-1.9,12.5-0.9,17.2,2.8
	c-1.8-0.3-3-0.7-4.1-0.6c-1.3,0.2-2.6,0.8-3.8,1.2c0.5,1.3,0.8,2.9,1.7,3.7c3.1,2.8,6.8,4.3,10.9,2.8c5.2-1.9,10.1-4.3,15.8-6.8
	c-7-2.4-12.8-4.8-18.8-6.2c-3.4-0.8-7.2-0.4-10.8,0.1C269.6,243.9,262,243.3,255,238.7z"/>
<path id="XMLID_4720_" class="st0" d="M244,110.6c3.7,5.3,6.8,9.8,10.1,14.3c0.5,0.7,1.2,1.4,2,1.6c5.3,1.5,10.6,2.9,16.7,4.5
	c-2.5-8.7-6.3-15.8-10.9-22.5c-0.4-0.6-1.8-0.9-2.7-0.8C254.2,108.6,249.4,109.6,244,110.6z"/>
<path id="XMLID_4719_" class="st0" d="M335.6,110.9c-2.8-8-5.2-14.9-7.7-21.8c-0.2-0.6-1-1.1-1.7-1.3c-4.8-1.3-9.5-2.5-14.9-3.8
	c2.5,7.5,4.8,14.2,7.2,20.8c0.2,0.7,1.1,1.4,1.8,1.6C324.9,107.8,329.5,109.1,335.6,110.9z"/>
<path id="XMLID_4718_" class="st0" d="M280.2,82.2c3.5,6.6,6.6,12.7,9.9,18.7c0.5,1,1.8,1.9,2.9,2.1c3.9,0.5,7.8,0.6,13.4,0.9
	c-3.9-7.6-7.3-14.2-10.8-20.7c-0.3-0.6-1.5-0.9-2.3-0.9C289.1,82.2,284.9,82.2,280.2,82.2z"/>
<path id="XMLID_4717_" class="st0" d="M201.8,205.5c-8.7,0.7-16.4,1.3-24,2c-0.7,0.1-1.9,0.6-1.9,0.8c0.4,2.9,0.6,6,1.6,8.7
	c0.5,1.3,2.6,2.7,4,2.7c5.7-0.1,11.3-0.8,17-1c2.5-0.1,3.4-1,3.3-3.4C201.7,212.3,201.8,209.1,201.8,205.5z"/>
<path id="XMLID_4716_" class="st0" d="M207,102.2c5.6,3.9,10.8,7.5,16.1,11.1c0.6,0.4,1.7,0.5,2.4,0.3c4.5-1.2,8.9-2.6,14.5-4.2
	c-5.5-4.9-10.3-9.3-15.3-13.6c-0.6-0.5-2-0.5-2.8-0.2C217,97.6,212.1,99.9,207,102.2z"/>
<path id="XMLID_4715_" class="st0" d="M264.6,106.9c3.5,8.1,6.7,15.7,10.3,23.1c0.7,1.4,2.8,2.2,4.4,2.9c2,0.9,4.1,1.3,6.8,2.1
	c-0.1-1.3,0.1-2.5-0.2-3.4c-2.8-7.9-5.7-15.9-8.8-23.7c-0.4-1-2.1-2.1-3.2-2.1C270.7,106,267.6,106.6,264.6,106.9z"/>
<path id="XMLID_4714_" class="st0" d="M289.4,134.7c0.1,0,0.4,0.1,0.6,0.1c8.4-1.5,8.8-1.8,6.5-10c-1.4-5.1-3.5-9.9-4.9-15
	c-1-3.9-3.3-5.1-7-4.6c-1.8,0.3-3.7,0.2-5.5,0.3C282.6,115.5,286,125.1,289.4,134.7z"/>
<path id="XMLID_4713_" class="st0" d="M221.1,113.7c-5.2-3-10.2-6.9-15.9-8.6c-2.7-0.8-7.2,2.1-9.9,4.5c-2.6,2.2-2.2,6,0.2,8.7
	c2.5,2.9,5.4,4.6,9.6,2.7c5-2.3,10.3-4,15.5-6C220.7,114.6,220.9,114.1,221.1,113.7z"/>
<path id="XMLID_4712_" class="st0" d="M247,87.1c5.1,5.9,9.4,11.2,14,16.3c0.8,0.9,2.5,1.3,3.8,1.2c3-0.1,6.1-0.6,10.5-1.1
	c-4.6-6.6-8.8-12.6-13.1-18.5c-0.4-0.5-1.6-0.7-2.4-0.6C255.7,85.2,251.6,86.1,247,87.1z"/>
<path id="XMLID_4711_" class="st0" d="M292.5,105.1c2.8,9,5.5,17.4,8.3,26.1c2.1-0.8,4.3-1.4,6.1-2.5c1-0.6,2.1-2.2,2-3.3
	c-0.4-5.7-1.1-11.3-2-16.9c-0.2-1-1.7-2.4-2.8-2.6C300.3,105.5,296.6,105.4,292.5,105.1z"/>
<path id="XMLID_4710_" class="st0" d="M299.5,63.8c3.4,5.9,6.3,11,9.3,16c0.5,0.9,1.6,1.8,2.6,2.1c4.6,1.2,9.3,2.1,15.4,3.4
	c-3.9-6.6-6.9-12.4-10.7-17.6c-1.2-1.6-4.4-1.8-6.8-2.3C306.2,64.8,303.2,64.4,299.5,63.8z"/>
<path id="XMLID_4709_" class="st0" d="M222.4,219.6c-6.3,0.4-12.1,0.7-18.4,1.1c-0.3,4.4-0.5,8.7-0.8,13.9
	c6.1-0.4,11.8-0.6,17.5-1.1c0.6-0.1,1.5-1.4,1.6-2.1C222.5,227.6,222.4,223.8,222.4,219.6z"/>
<path id="XMLID_4708_" class="st0" d="M264.7,83.5c4.2,6.7,8,12.7,11.9,18.6c0.5,0.7,1.9,1.1,2.9,1.2c2.7,0,5.5-0.2,9.4-0.4
	c-3.9-6.9-7.4-13.2-11-19.4c-0.4-0.7-2-1-3.1-0.9C271.6,82.7,268.4,83.1,264.7,83.5z"/>
<path id="XMLID_4707_" class="st0" d="M278.8,338.8c4.2,0.6,7.9,1.3,11.7,1.5c1,0.1,2.6-0.7,3.2-1.5c2.8-4.6,5.4-9.3,8.1-14
	C290.8,319.7,286.4,322.4,278.8,338.8z"/>
<path id="XMLID_4706_" class="st0" d="M231.3,74.8c4.4,3.5,8.2,6.7,12.1,9.7c0.7,0.5,1.9,0.9,2.8,0.7c4.4-0.9,8.7-1.9,14.1-3.2
	c-4.2-4.2-7.8-7.9-11.6-11.4c-0.6-0.5-1.9-0.7-2.8-0.5C241.2,71.4,236.5,73,231.3,74.8z"/>
<path id="XMLID_4705_" class="st0" d="M222.7,204.6c-6.4,0.4-12.3,0.8-18.5,1.2c0,4.2,0,8.2,0,12.7c6.2-0.4,12.3-0.7,18.5-1.1
	C222.7,213,222.7,209.2,222.7,204.6z"/>
<path id="XMLID_4704_" class="st0" d="M268,237.7c2.6-0.9,6.2-1.8,9.2-3.5c3.4-1.9,3.5-5.3,0.8-8.1c-3.3-3.4-7.3-4.1-11.7-2.7
	c-4.5,1.5-6.9,5.2-8,9.6c-0.2,0.8,1.2,2.6,2.3,3C262.5,237,264.8,237.1,268,237.7z"/>
<path id="XMLID_4703_" class="st0" d="M267.6,65c3.6,5,6.7,9.4,9.9,13.7c0.6,0.8,1.9,1.3,2.9,1.3c4.1,0.1,8.1,0.1,13.7,0.1
	c-4.8-5.9-8.7-11.1-13-15.8c-0.9-0.9-3.6-0.3-5.4-0.2C273.3,64.2,270.8,64.6,267.6,65z"/>
<path id="XMLID_4702_" class="st0" d="M321.1,267.3c-4.9-1.2-9.3-2.3-14.1-3.6c-1,4.2-2.1,8.6-2.9,13c-0.1,0.7,0.7,1.7,1.1,2.5
	c0.1,0.2,0.5,0.3,0.8,0.4c8.8,5,11.5,3.9,13.8-5.6C320.3,271.7,320.7,269.5,321.1,267.3z"/>
<path id="XMLID_4701_" class="st0" d="M225,233c1.9-0.2,3.5-0.2,5.1-0.4c11.6-1.5,12.8-3.2,10.7-15.6c-4.6,0.7-9.2,1.2-13.7,2.1
	c-0.8,0.1-1.9,1.4-1.9,2.2C224.8,225,225,228.8,225,233z"/>
<path id="XMLID_4700_" class="st0" d="M250.4,68.6c4.1,4.4,7.7,8.4,11.4,12.2c0.5,0.5,1.6,0.8,2.4,0.7c3.6-0.4,7.2-0.9,11.7-1.5
	c-3.6-4.8-6.7-9.1-10.1-13.2c-0.6-0.7-2.1-1.1-3-0.9C258.9,66.6,254.9,67.6,250.4,68.6z"/>
<path id="XMLID_4699_" class="st0" d="M221.8,190.2c-5.9,0.8-11.4,1.5-16.8,2.4c-0.7,0.1-1.5,1.3-1.6,2c-1.2,7.4,0.1,8.8,7.6,8.5
	c3.1-0.1,6.2-0.1,9.2-0.6c1-0.2,2.4-1.7,2.4-2.6C222.5,196.9,222.1,193.8,221.8,190.2z"/>
<path id="XMLID_4698_" class="st0" d="M201.2,235c0-5.1,0-9.4,0-14.4c-6.6,0.4-13.2,0.9-19.8,1.3c-0.3,0.4-0.5,0.8-0.8,1.1
	c3.6,3.8,6.8,8.1,10.9,11.1C193.6,235.7,197.4,234.7,201.2,235z"/>
<path id="XMLID_4697_" class="st0" d="M290.2,287.1c-6.4,3.3-10.1-1.1-14.2-4.4c-2.7-2.2-5.5-2.9-9-2.2c-7,1.6-14,3-20.9,4.6
	c-1.4,0.3-2.8,0.8-4.8,1.4c0.7,0.5,1,0.9,1.3,0.9c9.6,0,19.2-0.1,28.8,0.1c2.7,0,5.9,0,8,1.4C283.7,291.5,286.8,290.2,290.2,287.1z"
	/>
<path id="XMLID_4696_" class="st0" d="M286.3,47.6c3.7,4.6,7,8.8,10.5,12.9c0.6,0.7,1.7,1,2.6,1.2c4.4,0.8,8.9,1.4,13.4,2.1
	C307.8,51.3,299.9,46.4,286.3,47.6z"/>
<path id="XMLID_4695_" class="st0" d="M224.9,217c2.6-0.3,4.4-0.5,6.1-0.7c11.4-1.6,11.8-2.2,9.4-14.2c-4.6,0.6-9.2,1.2-13.7,2
	c-0.7,0.1-1.6,1.3-1.7,2C224.8,209.6,224.9,213.1,224.9,217z"/>
<path id="XMLID_4694_" class="st0" d="M347.8,115.4c-2.1-7-3.4-14.4-6.5-21c-1.2-2.7-6.2-3.6-10.3-5.7c2.3,8.2,3.6,15.5,6.6,22.2
	c1.1,2.6,5.8,3.7,8.8,5.4C346.8,116,347.3,115.7,347.8,115.4z"/>
<path id="XMLID_4693_" class="st0" d="M335.2,123.9c0.4-0.8,0.5-1.1,0.6-1.4c0.8-8.3,0.4-8.9-7.3-11.5c-2.7-0.9-5.5-1.6-8.6-2.4
	c0.4,5.4,0.7,10.2,1.1,15.3C325.7,123.9,330.4,123.9,335.2,123.9z"/>
<path id="XMLID_4692_" class="st0" d="M263.6,61.6c-3.2-2.5-6.3-5.2-9.6-7.6c-0.8-0.6-2.2-1-3.1-0.7c-4.3,1.6-8.6,3.5-12.7,5.2
	C244.9,68,253.2,67.3,263.6,61.6z"/>
<path id="XMLID_4691_" class="st0" d="M193.5,158c16.7-8.7,32.9-12.3,50.6-3.5c-0.8-0.6-1.7-1.2-2.5-1.8
	C226.2,140.4,204.5,142.6,193.5,158z"/>
<path id="XMLID_4690_" class="st0" d="M315.8,323.6c-3.8,0.2-6.9,0.2-9.9,0.5c-0.9,0.1-2.1,1-2.6,1.9c-2.6,4.5-5,9.2-7.4,13.8
	c7,2.2,11.8,0.4,14.8-5.6C312.4,330.8,313.9,327.5,315.8,323.6z"/>
<path id="XMLID_4689_" class="st0" d="M324.2,251.8c-4.9-1-9.4-2-14.2-3c-0.4,1.8-1,3.6-1.2,5.5c-0.3,2.3-0.9,6.4-0.1,6.7
	c3.8,1.7,8,2.4,12.1,3.3c0.3,0.1,1.2-0.8,1.3-1.4C322.8,259.2,323.5,255.5,324.2,251.8z"/>
<path id="XMLID_4688_" class="st0" d="M251.4,124.5c-3-4-6-8.1-9.1-12c-0.5-0.6-1.9-0.9-2.7-0.7c-4.3,1.1-8.6,2.4-13.3,3.8
	c3.2,4.3,6,7.7,11.7,7.7c4.3,0,8.5,1.3,12.8,2.1C250.9,125.1,251.1,124.8,251.4,124.5z"/>
<path id="XMLID_4687_" class="st0" d="M323.6,303.2c-3.5,0.2-6.2,0.2-8.9,0.5c-0.8,0.1-1.8,0.6-2.1,1.2c-2.4,5.4-4.6,10.9-7.1,17.2
	c3.7-0.2,6.7-0.3,9.7-0.7c0.8-0.1,1.8-1,2.1-1.7C319.5,314.3,321.4,309.1,323.6,303.2z"/>
<path id="XMLID_4686_" class="st0" d="M284,63.3c4.3,5.7,7.5,11.2,11.9,15.5c2.1,2.1,6.5,1.9,9.9,2.7c0.3-0.4,0.6-0.9,0.9-1.3
	c-3.3-5.2-6.4-10.6-10.1-15.6c-0.9-1.2-4-1-6.1-1.2C288.6,63.1,286.8,63.3,284,63.3z"/>
<path id="XMLID_4685_" class="st0" d="M298.5,82.1c3.3,7.5,5.7,14.1,9.1,20.2c1.1,2,4.9,2.6,7.4,3.8c0.5-0.5,1.1-0.9,1.6-1.4
	c-2.7-6.8-4.9-13.8-8.5-20.1C307.1,82.7,302.1,83,298.5,82.1z"/>
<path id="XMLID_4684_" class="st0" d="M269.7,49.4c3.8,3.7,7.2,8.3,11.7,10.9c3.1,1.8,7.8,1,11.8,1.3c0.3-0.4,0.6-0.8,0.9-1.2
	c-3.6-4.2-6.6-9.4-11.1-12.2c-3.1-1.9-8.4-0.4-12.7-0.4C270.1,48.4,269.9,48.9,269.7,49.4z"/>
<path id="XMLID_4683_" class="st0" d="M224.1,190c0.2,3.3,0.3,6.1,0.5,8.8c0.1,0.9,0.2,1.7,0.3,3.4c4.8-0.8,9.5-1.4,14.1-2.3
	c0.7-0.1,1.6-1.4,1.6-2.1c0-3-0.3-6-0.5-9.4C234.5,188.9,229.6,189.4,224.1,190z"/>
<path id="XMLID_4682_" class="st0" d="M221.1,246c0.4-3.5,0.7-6.6,1-10.3c-6.1,0.4-11.7,0.6-17.3,1.1c-2.1,0.2-3.3,5-1.4,6.8
	c1.6,1.5,4,2.9,6.2,3.1C213.1,247,216.8,246.3,221.1,246z"/>
<path id="XMLID_4681_" class="st0" d="M312.5,246.8C312.4,246.7,312.5,246.8,312.5,246.8c11,4.8,13.6,2.8,15-11.5
	c-4-0.8-8.1-1.7-11.7-2.5C314.8,237.4,313.7,241.9,312.5,246.8z"/>
<path id="XMLID_4680_" class="st0" d="M256.8,195.3c-4,1.8-7.8,3.3-11.4,5.1c-1,0.5-2.2,1.9-2.3,3c-0.3,3.2-0.1,6.4-0.1,9.6
	C254.6,212.3,259.4,205.9,256.8,195.3z"/>
<path id="XMLID_4679_" class="st0" d="M201.6,203.4c-0.2-3.6-0.4-6.6-0.7-10.2c-9.1,2.1-18,3.4-24.7,12.1
	C185.2,204.6,193.1,204,201.6,203.4z"/>
<path id="XMLID_4678_" class="st0" d="M278.4,61.4c-4.1-4.2-7.3-9-11.7-11.4c-2.6-1.4-7.3,0.8-11.8,1.5c3.8,4.1,6.8,7.3,9.8,10.3
	c0.6,0.6,1.8,1.2,2.6,1.1C270.8,62.5,274.4,61.9,278.4,61.4z"/>
<path id="XMLID_4677_" class="st0" d="M316.9,217.3c4.3,0.6,8.2,1.2,12.2,1.6c0.8,0.1,2.3-0.9,2.6-1.7c0.9-3,1.4-6.2,2.2-9.5
	c-3-0.2-5.4-0.3-7.9-0.7c-2.3-0.3-4.5-0.9-7-1.4C318.3,209.4,317.7,212.9,316.9,217.3z"/>
<path id="XMLID_4676_" class="st0" d="M221.4,258.7c3.2-0.3,5.6-0.5,8.1-0.8c9.4-1.4,9.5-1.6,9.5-11.9c-4.8,0.6-9.5,1.1-14.2,2
	c-0.8,0.1-1.8,1.4-2,2.3C222.1,252.8,221.9,255.4,221.4,258.7z"/>
<path id="XMLID_4675_" class="st0" d="M257,210.2c-4.1,1.8-7.9,3.4-11.7,5.3c-0.9,0.5-1.9,1.9-1.9,2.9c-0.2,3.6-0.1,7.2-0.1,10.8
	C251.6,228.7,257.3,220.8,257,210.2z"/>
<path id="XMLID_4674_" class="st0" d="M240.5,233.1c-4.5,0.6-8.4,1.4-12.3,1.7c-3,0.2-4.5,1.3-4.5,4.5c0.1,1.9-0.2,3.8-0.4,6.7
	c5.3-0.9,10.3-1.5,15.2-2.6c0.7-0.2,1.3-2,1.5-3.2C240.3,238.1,240.3,235.9,240.5,233.1z"/>
<path id="XMLID_4673_" class="st0" d="M291.1,343c-4.3-0.8-8-1.6-11.7-2.2c-4.4-0.7-4.6,3.8-6.6,5.9c-0.5,0.6,0.5,3.3,1.5,4.3
	c4.4,4.5,8.5,4.1,12-1C288,347.9,289.4,345.6,291.1,343z"/>
<path id="XMLID_4672_" class="st0" d="M274.2,364.4c-5.1-0.7-9.4-1.4-13.7-1.9c-1-0.1-2.3,0.4-3.2,1c-4,2.6-7.9,5.4-11.8,8
	C253.1,374.5,267.5,371.4,274.2,364.4z"/>
<path id="XMLID_4671_" class="st0" d="M330.8,221.6c-5.1-0.7-9.6-1.4-14.5-2.1c-0.6,2.6-1.5,5.2-1.8,7.8c-0.1,0.9,0.9,2.6,1.8,2.8
	c3.8,1.2,7.7,2.1,11.9,3.1C329.2,229,330,225.4,330.8,221.6z"/>
<path id="XMLID_4670_" class="st0" d="M319.9,68.7c3,5.7,5.2,11.4,8.8,16.1c2.1,2.7,6.5,3.7,10.3,5.8
	C337.3,78.5,330.2,70.6,319.9,68.7z"/>
<path id="XMLID_4669_" class="st0" d="M328.9,284.8c-9.7-0.4-9.7-0.4-12.1,7.7c-0.8,2.8-1.7,5.5-2.7,8.6c2.9,0,5.5,0.2,8-0.1
	c1-0.1,2.4-1.2,2.7-2.1C326.3,294.3,327.5,289.7,328.9,284.8z"/>
<path id="XMLID_4668_" class="st0" d="M230.1,76.7c-3.5,4.6-6.5,8.6-9.6,12.6c1.7,2.5,3.8,3.1,6.7,1.9c4.5-1.8,9.2-3.3,14.8-5.2
	C237.7,82.6,234,79.8,230.1,76.7z"/>
<path id="XMLID_4667_" class="st0" d="M294.8,308c1.4,0,2.9-0.2,4.3,0.1c1.6,0.4,3.8,0.9,4.3,2c0.5,1.2-0.2,3.5-1.2,4.6
	c-1.8,2.2-4.3,3.8-6.5,5.8c5.9,2.4,7,2,9.3-3.4c1.9-4.2,3.6-8.5,5.6-13.2c-4.4-0.8-8.4-2-12.3-1.9c-1.6,0.1-3.1,3.2-4.6,4.9
	C294.1,307.3,294.5,307.7,294.8,308z"/>
<path id="XMLID_4666_" class="st0" d="M319.9,282.6c2.1,0,3.7,0,5.3,0c3.2,0.1,5-1.3,5.5-4.7c0.5-3.7,1.5-7.4,2.2-10.9
	c-0.6-0.4-0.9-0.6-1.1-0.6c-8.1,0-8.1,0-9.8,7.9C321.3,276.9,320.6,279.5,319.9,282.6z"/>
<path id="XMLID_4665_" class="st0" d="M311.5,126.6c7-1,7.2-1.2,7.1-7.7c0-1.3-0.2-2.6-0.3-3.9c-0.9-7.5-0.9-7.5-9-8.1
	C310,113.5,310.8,120,311.5,126.6z"/>
<path id="XMLID_4664_" class="st0" d="M253.5,363c-9.7,0.5-19.9-1.4-27.6,6.5C233.9,373.5,244.2,371.3,253.5,363z"/>
<path id="XMLID_4663_" class="st0" d="M357,121.9c-1.8-7.8-3-14.8-5.2-21.5c-0.7-2.1-3.9-3.4-5.9-5.1c-0.4,0.2-0.7,0.5-1.1,0.7
	c0.6,2.2,1.4,4.5,1.9,6.7c0.9,3.5,1.8,7.1,2.4,10.6C350,119,349.9,119,357,121.9z"/>
<path id="XMLID_4662_" class="st0" d="M234.7,271.4c1-4.8,1.8-8.3,2.6-12.4c-5.2,0.6-9.9,1.1-14.6,1.9c-0.9,0.2-2.1,1.5-2.3,2.5
	c-0.2,1,0.5,2.8,1.2,3.1C225.8,268.3,230,269.6,234.7,271.4z"/>
<path id="XMLID_4661_" class="st0" d="M327.7,68.1c-6.1-12.2-11.1-16.5-20.9-17.9C309.9,59.1,318.7,66.7,327.7,68.1z"/>
<path id="XMLID_4660_" class="st0" d="M333.6,188.7c-5.1-2.1-9.9-4.1-14.8-6.2c0,2.3-0.2,5.1,0.1,7.9c0.1,0.9,1.1,2.1,2,2.5
	c2,0.9,4.1,1.6,6.2,2C334.1,196.2,334.9,195.2,333.6,188.7z"/>
<path id="XMLID_4659_" class="st0" d="M327.3,248.8c11-0.6,8.9,2.2,12-14.4c-3.1,0.2-6.1,0.3-9.1,0.5c-0.7,3.2-1.4,6-2,8.9
	C327.9,245.3,327.6,246.9,327.3,248.8z"/>
<path id="XMLID_4658_" class="st0" d="M243,199.2c3.5-1.5,6.3-2.6,9-4c5.2-2.9,5.4-3.8,3.2-10c-4.1,0.9-8.3,1.8-13,2.9
	C242.4,191.5,242.7,194.9,243,199.2z"/>
<path id="XMLID_4657_" class="st0" d="M204.6,142.2c-9.1,1.9-17.5,4.7-24.3,10.8c-1.2,1-1.4,3.2-2.1,4.8c2,0,4.3,0.7,5.9-0.1
	c2.4-1.2,4.1-3.7,6.3-5.3C194.9,148.9,199.6,145.7,204.6,142.2z"/>
<path id="XMLID_4656_" class="st0" d="M319.3,195.3c-1.6,8.7,1.8,11.1,14.4,9.7c0.1-2.3,0.3-4.6,0.4-6.9
	C328.9,197.2,324.3,196.3,319.3,195.3z"/>
<path id="XMLID_4655_" class="st0" d="M288.3,310.3c-12.2-0.6-24.5-1.1-38.3-1.8c2.2,2,3.5,4,5.1,4.4c3.6,0.8,7.5,1.4,11.1,1
	c7.4-0.8,14.7-2.2,22-3.4C288.3,310.5,288.3,310.4,288.3,310.3z"/>
<path id="XMLID_4654_" class="st0" d="M260.1,202.7c2.9-1.3,5.9-2.5,8.6-4.1c0.9-0.5,1.8-2.1,1.7-3c-0.4-3.1-1.3-6.1-2-9.2
	C259.6,189.4,258.5,191.7,260.1,202.7z"/>
<path id="XMLID_4653_" class="st0" d="M324.3,264.4c1.8,0,3.3,0,4.7,0c3.2,0,5.1-1.1,5.3-4.7c0.2-2.9,1-5.7,1.6-8.6
	C325.2,251,326.4,249.2,324.3,264.4z"/>
<path id="XMLID_4652_" class="st0" d="M288.1,148.3c-0.8-11-0.8-11-12.3-13.7c1.4,4.8,2.4,9.2,3.9,13.5c0.2,0.6,2.2,0.8,3.4,0.8
	C284.6,148.9,286.2,148.5,288.1,148.3z"/>
<path id="XMLID_4651_" class="st0" d="M291.3,226.5c1.6,8,5.4,11.5,13.4,12.9C307.6,230.6,302.6,225.7,291.3,226.5z"/>
<path id="XMLID_4650_" class="st0" d="M289.7,137.2c-0.6,10.7-0.1,11.5,9.2,12.1c0-4.7,0-9.4,0-14.5
	C295.4,135.7,292.6,136.4,289.7,137.2z"/>
<path id="XMLID_4649_" class="st0" d="M286.5,354.6c8.2-2.2,15.5-3.6,19.4-11.6C295.7,341.1,292.9,342.7,286.5,354.6z"/>
<path id="XMLID_4648_" class="st0" d="M344.8,204.4c-8.7,0.8-10.6,6.6-10.6,13.7C343.1,219.6,347.3,214.2,344.8,204.4z"/>
<path id="XMLID_4647_" class="st0" d="M276.6,37.8c4.6,9,13.1,7.1,21.1,8C292.3,37.8,285.4,35.4,276.6,37.8z"/>
<path id="XMLID_4646_" class="st0" d="M342.3,220.4c-10,0-10.8,0.9-11,11.9C341.6,232.7,340.2,233.2,342.3,220.4z"/>
<path id="XMLID_4645_" class="st0" d="M293,165.8c0.6,4,0.6,8.2,2,11.9c0.7,2,3.8,3.1,5.8,4.5c0.4-0.3,0.7-0.6,1.1-0.9
	c-0.3-4.4-0.1-9-1.3-13.1c-0.5-1.8-4.2-2.7-6.5-4C293.8,164.8,293.4,165.3,293,165.8z"/>
<path id="XMLID_4644_" class="st0" d="M237.3,270.3c7.4,0,9.4-2.4,11.6-14C240.5,256.5,239,258.3,237.3,270.3z"/>
<path id="XMLID_4643_" class="st0" d="M347.1,164.6c3.3-4.9,1.8-8.2-1.5-11.1c-4.7-4.1-10.7-4.5-16.7-0.7
	C336.1,155.4,345,154.7,347.1,164.6z"/>
<path id="XMLID_4642_" class="st0" d="M292.9,179.4c-0.6-4.3-1.1-8.3-1.9-12.3c-0.5-2.7-2-3-7.5-1.5c0.8,4.5,1.7,9,2.6,13.8
	C288.4,179.4,290.4,179.4,292.9,179.4z"/>
<path id="XMLID_4641_" class="st0" d="M350.1,95c-2.9-8.4-4.7-16.8-14.6-19.1C340.5,81.9,339.3,92.3,350.1,95z"/>
<path id="XMLID_4640_" class="st0" d="M279.8,45c-6.6-7.8-9.5-8.4-19-4.2C265.3,49.3,272.6,45.3,279.8,45z"/>
<path id="XMLID_4639_" class="st0" d="M322.6,56.3c5.7,6.5,8.1,16.3,18.9,18.8C336.5,67,332.7,58.8,322.6,56.3z"/>
<path id="XMLID_4638_" class="st0" d="M229.2,363.9c-8.1,1.2-15.9-5.3-24.1-0.8C212,369,221.4,369.5,229.2,363.9z"/>
<path id="XMLID_4637_" class="st0" d="M291.3,150.6c0,11.6,0.6,12.5,9.2,13c-0.2-3.3-0.1-6.7-0.8-9.9c-0.2-1-2.1-2-3.4-2.5
	C294.8,150.7,293.2,150.8,291.3,150.6z"/>
<path id="XMLID_4636_" class="st0" d="M250,242.7c-9.1,2.5-9.1,2.5-9.5,13.3c3.4-1.4,7.4-1.8,9.2-4C251.1,250.2,250,246.2,250,242.7
	z"/>
<path id="XMLID_4635_" class="st0" d="M348,203.4c-0.7,4.8-1.4,8.9-2,13c6.8,0.4,7.3,0,8.4-5.8c0.4-2.3,0.7-4.5,1-7.2
	C352.7,203.4,350.3,203.4,348,203.4z"/>
<path id="XMLID_4634_" class="st0" d="M339.1,247.2c6,0.7,8.4-1.6,8.7-6.6c0.2-2.4,1.1-4.8,1.6-7.2c-6.3-0.9-7.3-0.2-8.6,5.3
	C340.2,241.5,339.7,244.3,339.1,247.2z"/>
<path id="XMLID_4633_" class="st0" d="M342.9,174.4c-8.1,6.1-16,0-25.2,0.7c1.1,2.1,1.5,4.3,2.6,4.6c7.4,2.4,14.7,2.4,21.4-2.2
	c0.3-0.2,0.6-0.6,0.9-1C342.7,176.3,342.7,176,342.9,174.4z"/>
<path id="XMLID_4632_" class="st0" d="M207.3,359.6c-3.6-2.6-6.6-5.8-10.4-7.2c-2.3-0.8-5.7,1.3-8.6,2.6
	C194.2,358.4,199.2,364.6,207.3,359.6z"/>
<path id="XMLID_4631_" class="st0" d="M173.5,344.6c11.6,10.3,11.5,10.3,19.9,5.1C187.4,345.8,181.5,343.1,173.5,344.6z"/>
<path id="XMLID_4630_" class="st0" d="M335.8,262.9c5,0.7,7.5-0.9,8-5.5c0.3-2.7,1.2-5.3,1.8-8c-6.9-0.3-7-0.3-8.3,5.6
	C336.8,257.5,336.4,260,335.8,262.9z"/>
<path id="XMLID_4629_" class="st0" d="M289.2,198.4c0.4,4.3,0.9,8.6,1.3,13.2c2.1,0.2,4.1,0.4,6.8,0.6c-0.5-4.3-0.4-8.3-1.6-11.9
	c-0.5-1.5-3.5-2.2-5.4-3.3C290,197.5,289.6,197.9,289.2,198.4z"/>
<path id="XMLID_4628_" class="st0" d="M353.7,186.2c-6.5,2.1-6.7,4.3-5.5,14.7c2.1,0,4.2,0,7,0C354.7,195.9,354.2,191.2,353.7,186.2
	z"/>
<path id="XMLID_4627_" class="st0" d="M341.8,265.2c-5-0.7-7.1,0.9-7.5,5.4c-0.3,3.5-1.4,6.8-2.1,10.5c3.8,0.8,6-0.3,6.7-4.2
	C339.5,273.1,340.7,269.3,341.8,265.2z"/>
<path id="XMLID_4626_" class="st0" d="M349.9,138.8c-2.3,0.8-1.7,3.3-0.8,5.4c0.4,1,2.4,2.4,2.5,2.2c1.6-1.2,3.5-2.5,4.2-4.3
	c2.1-5.5,0.9-7.2-7.4-10.9C348.9,134.2,349.4,136.4,349.9,138.8z"/>
<path id="XMLID_4625_" class="st0" d="M335,132.2c0.2-2.2,0.3-3.7,0.5-6.5c-4.7,0.3-9.2,0.2-13.4,1c-1.1,0.2-1.8,3.2-2.9,5.5
	C325.1,132.2,329.8,132.2,335,132.2z"/>
<path id="XMLID_4624_" class="st0" d="M286.6,182.6c0.7,4.3,1.4,8.5,2.1,12.9c2.2,0.2,4,0.3,6.5,0.5c-0.6-4.3-0.7-8.4-2-12.2
	c-0.5-1.4-3.7-1.8-5.6-2.7C287.3,181.6,287,182.1,286.6,182.6z"/>
<path id="XMLID_4623_" class="st0" d="M288.6,150.7c-2.8,0.2-5.2,0.3-8.1,0.5c0.8,3.9,1.5,7.4,2.3,11.2c2.5,0,4.7,0,7.5,0
	C289.8,158.4,289.2,154.8,288.6,150.7z"/>
<path id="XMLID_4622_" class="st0" d="M290.6,214.2c-1.8,8.6-0.2,10.2,10.1,10.7C297.5,213.4,297.4,213.4,290.6,214.2z"/>
<path id="XMLID_4621_" class="st0" d="M338,115.3c0,2.9,0,5.8,0,9.1c2.7,1,5.5,1.9,8.4,2.9C348.5,119.2,348.6,118.5,338,115.3z"/>
<path id="XMLID_4620_" class="st0" d="M329.8,301.6c-1.6,1.2-3.9,2-4.6,3.6c-2.1,4.8-3.7,9.8-5.9,16.1c2.4-1,4.7-1.3,5.2-2.4
	c2.5-5.2,4.5-10.6,6.6-16C330.7,302.5,330.2,302.1,329.8,301.6z"/>
<path id="XMLID_4619_" class="st0" d="M352.3,218.8c-7.8,0.2-7.4-1.4-9.3,12C350.4,231.3,351,230.6,352.3,218.8z"/>
<path id="XMLID_4618_" class="st0" d="M260.2,218.3c3.4-5.3,6.8-10.7,10.8-16.8c-9.1,0.4-11.5,4-12.2,16
	C259.2,217.8,259.7,218,260.2,218.3z"/>
<path id="XMLID_4617_" class="st0" d="M326.9,300c3.6,0.8,5.4-0.4,6.2-3.5c1.1-4.2,2.4-8.3,3.7-12.7c-3.9-0.8-5.9,0.3-6.6,4.2
	C329.4,291.9,328.1,295.7,326.9,300z"/>
<path id="XMLID_4616_" class="st0" d="M220.7,248.4c-3.2,0.1-5.8,0.2-8.4,0.4c-0.8,0-1.7,0.2-2.9,0.4c1.4,3.1,2.5,6.1,4,8.8
	c0.4,0.8,2.3,1.3,3.3,1.1c1-0.2,2.3-1.2,2.5-2.2C220,254.3,220.2,251.6,220.7,248.4z"/>
<path id="XMLID_4615_" class="st0" d="M303.3,198.1c-0.3-4-0.4-7.7-0.8-11.3c-0.4-3.8-3.5-3.7-6.1-4.3
	C294.9,190.6,297.3,196.5,303.3,198.1z"/>
<path id="XMLID_4614_" class="st0" d="M263.2,47c-4.9-6.3-6.5-6.5-15.5-2.1C251.6,50.7,254.1,51,263.2,47z"/>
<path id="XMLID_4613_" class="st0" d="M245.9,67.6c-4.4-3-7.8-5.3-11.8-7.9c-0.7,4.6-1.3,8.1-2,12.4
	C236.5,70.7,240.5,69.4,245.9,67.6z"/>
<path id="XMLID_4612_" class="st0" d="M345.1,182.3c-3.2,2.1-6.5,3.6-8.7,6.1c-1.1,1.2-0.2,4.2-0.2,6.3
	C343.6,194.4,346.4,190.4,345.1,182.3z"/>
<path id="XMLID_4611_" class="st0" d="M300.4,215.5c0.8,8.2,6.3,12.9,11.4,17.8C312.1,227,305.7,216.7,300.4,215.5z"/>
<path id="XMLID_4610_" class="st0" d="M314.2,296.8c-5.9-1-10.2-1.7-15-2.5c-0.5,1.5-1.1,3-1.9,5.4c4.3,0.6,8.2,1.5,12.2,1.4
	C310.9,301,312.3,298.6,314.2,296.8z"/>
<path id="XMLID_4609_" class="st0" d="M312.5,48.7c-4.6-6.1-10.1-10.1-18.3-10.3C299.1,44.3,304.3,48.7,312.5,48.7z"/>
<path id="XMLID_4608_" class="st0" d="M250.9,50.8c-2.9-1.7-5.7-4.4-7.1-3.8c-4.3,1.8-7.5,5.2-9.3,10.8
	C240.1,55.4,245,53.3,250.9,50.8z"/>
<path id="XMLID_4607_" class="st0" d="M298.2,199.4c0.4,4,0.3,7.7,1.3,11.1c0.5,1.7,2.9,2.9,4.9,4.8
	C305.3,204.3,303.8,200.6,298.2,199.4z"/>
<path id="XMLID_4606_" class="st0" d="M345.3,193.4c-3.8,3.6-12.1,2.6-8.8,11C344.7,203.5,346,201.9,345.3,193.4z"/>
<path id="XMLID_4605_" class="st0" d="M348.1,186.1c5.8-2.9,7.3-9,3.8-14.7C348.3,175.8,346.4,180.3,348.1,186.1z"/>
<path id="XMLID_4604_" class="st0" d="M311.8,339c6.3-3.2,7.4-10.1,10.9-15.5C317.3,322,319,322.6,311.8,339z"/>
<path id="XMLID_4603_" class="st0" d="M349.8,121.3c-1.1,8-1.1,8,6.5,11.4C357.9,125.9,357,124.3,349.8,121.3z"/>
<path id="XMLID_4602_" class="st0" d="M309.2,197c1.8-7.2-0.2-12.7-5.3-18.7C305,185.4,303,191.9,309.2,197z"/>
<path id="XMLID_4601_" class="st0" d="M227.9,121.8c-2.3-4.6-5.1-6-9.4-3.8c-2.7,1.4-5.6,2.2-8.3,3.8
	C215.9,121.8,221.7,121.8,227.9,121.8z"/>
<path id="XMLID_4600_" class="st0" d="M326.3,166.8c3.5,1.1,6.1,2.1,8.7,2.6c1.2,0.2,2.5-0.7,3.8-1.1c-0.6-1.5-0.7-3.7-1.8-4.4
	C333.1,161.3,330,163.7,326.3,166.8z"/>
<path id="XMLID_4599_" class="st0" d="M242.3,242.7c2.1-0.7,3.9-1.3,5.8-1.9c-0.3-3.3-0.5-6.4-0.7-9.5
	C242.2,232.2,241.9,232.8,242.3,242.7z"/>
<path id="XMLID_4598_" class="st0" d="M314.4,215.5c3.6-9.1,3.2-11.1-3.3-13C313.8,206.8,307.3,212.3,314.4,215.5z"/>
<path id="XMLID_4597_" class="st0" d="M302.1,145.7c2.1-4.8,4.1-9.6,6.2-14.4C300.2,132.5,299.1,134.9,302.1,145.7z"/>
<path id="XMLID_4596_" class="st0" d="M281.4,326.4c-3.5,2.6-6.9,5.2-11.3,8.4c2.7,1.4,4.1,2.1,6.2,3.1c2.1-3.6,4.2-7,6.2-10.4
	C282.2,327.1,281.8,326.8,281.4,326.4z"/>
<path id="XMLID_4595_" class="st0" d="M337.8,126.9c-0.2,2-0.4,3.6-0.6,5.5c2.9,0.9,5.6,1.8,8.3,2.7
	C347.7,129.6,347.2,129.1,337.8,126.9z"/>
<path id="XMLID_4594_" class="st0" d="M316.6,201.6c0.1-4.5,1.7-9.2-4.2-11.1C310.8,198.3,311.2,199.6,316.6,201.6z"/>
<path id="XMLID_4593_" class="st0" d="M316.6,189.9c0-3.9,0-7.2,0-11.7c-2.1,1.6-4.4,2.5-4.8,3.8C310.8,185.6,312.9,188,316.6,189.9
	z"/>
<path id="XMLID_4592_" class="st0" d="M210.8,171c8.3,2.9,16.4,2.4,24.5,0C227.1,171,219,171,210.8,171z"/>
<path id="XMLID_4591_" class="st0" d="M307.2,210.8c3.9-5.9,2.9-10.5-2-13.5C305.9,202.1,306.5,206.5,307.2,210.8z"/>
<path id="XMLID_4590_" class="st0" d="M317.5,127.8c-5.6,1.9-6.4,3.2-5.8,8.7C317.9,134.4,318.4,133.6,317.5,127.8z"/>
<path id="XMLID_4589_" class="st0" d="M259.3,188.7c2.1-1.4,4.2-2.8,6.5-4.3c-1.6-2.4-3.5-3.9-5.7-1.7c-1.3,1.2-1.6,3.4-2.4,5.2
	C258.2,188.2,258.7,188.4,259.3,188.7z"/>
<path id="XMLID_4588_" class="st0" d="M308.7,215.5c1,4,1.8,7,2.5,10C315,218.9,314.9,218.4,308.7,215.5z"/>
<path id="XMLID_4587_" class="st0" d="M291.8,307.8c0.8-2.2,1.7-4.4,2.6-6.9c-1.6-0.6-2.9-1.1-5.3-2.1c0.3,3.6,0.5,6.3,0.7,8.9
	C290.5,307.8,291.1,307.8,291.8,307.8z"/>
<path id="XMLID_4586_" class="st0" d="M312.9,46.5c3.4,2.5,6.9,5.1,10.3,7.6c0.3-0.4,0.7-0.9,1-1.3c-3.4-2.6-6.8-5.1-10.2-7.7
	C313.7,45.5,313.3,46,312.9,46.5z"/>
<path id="XMLID_4585_" class="st0" d="M307.9,136.5c-1.2,3.6-2.4,7.2-3.7,10.8c0.3,0.1,0.7,0.2,1,0.3c1.5-3.5,3.1-7,4.6-10.5
	C309.2,137,308.6,136.7,307.9,136.5z"/>
<path id="XMLID_4584_" class="st0" d="M281.5,368.1c-4.4-3.6-6.5-1-9.7,2.2C275.6,369.4,278.1,368.8,281.5,368.1z"/>
<path id="XMLID_4583_" class="st0" d="M308,233.3c-0.1,2-0.2,4.1-0.4,7c1.5-0.7,3.4-1.4,3.4-1.6c-0.5-1.9-1.3-3.8-2.1-5.7
	C308.6,233.1,308.3,233.2,308,233.3z"/>
<path id="XMLID_4582_" class="st0" d="M270.8,344.5c0.9-0.6,1.3-0.7,1.6-1.1c0.8-1,1.5-2.1,2.5-3.6c-1.4-0.7-2.6-1.3-4.6-2.2
	C270.5,340.3,270.7,342.2,270.8,344.5z"/>
<path id="XMLID_4581_" class="st0" d="M212.8,97.1c2.6-1.2,5.2-2.3,7.8-3.5C218.2,90.6,218.2,90.6,212.8,97.1z"/>
<path id="XMLID_4580_" class="st0" d="M301.9,276.1c0.7-2.7,1.3-5.3,2-8c-0.4-0.1-0.8-0.2-1.1-0.3
	C301.7,270.4,298.4,272.3,301.9,276.1z"/>
<path id="XMLID_4579_" class="st0" d="M75.6,236.3c-4-1.4-7.2-2.8-10.7-3.7c-2.6-0.7-5.5-1.4-8.1-0.9c-6.3,1.2-12.1,0.7-17.8-2.2
	c0.1,5.6,1.8,7.5,7.2,8.4c1.8-5.1,8.5-6.2,13.8-2.6c-1.2,0.5-2.7,1.2-4.1,1.8c1.3,1.3,2.4,3.1,3.9,3.7
	C65.9,243,70.3,238.8,75.6,236.3z"/>
<path id="XMLID_4578_" class="st0" d="M18.1,124.9c3.8,3.6,7,6.9,10.5,9.9c0.8,0.7,2.4,0.6,3.6,0.4c3-0.5,5.9-1.2,10-2.1
	c-3.8-4.1-7.1-7.7-10.5-11.2c-0.5-0.6-1.9-0.7-2.7-0.5C25.5,122.4,22,123.6,18.1,124.9z"/>
<path id="XMLID_4577_" class="st0" d="M51.7,150.9c-2.7-5.2-5.1-9.9-7.8-14.5c-0.4-0.7-2-1.2-2.9-1.1c-3.2,0.4-6.3,1.1-9.7,1.8
	C35.3,145.4,40.6,151.3,51.7,150.9z"/>
<path id="XMLID_4576_" class="st0" d="M79.5,119.1c1.5,4.3,2.8,8.6,4.5,12.8c0.4,1,1.6,2,2.7,2.4c2.8,1,5.8,1.7,9.8,2.9
	c-2-5.7-2.8-11.2-5.7-14.9c-2-2.6-7-3-10.7-4.4C79.9,118.3,79.7,118.7,79.5,119.1z"/>
<path id="XMLID_4575_" class="st0" d="M0.2,214.5c0-3.1,0-5.8,0-9.1c-5.7,0.5-11.2,0.8-16.6,1.5c-0.8,0.1-2,2.2-1.8,3
	c0.6,2.4,0.4,5.9,4.5,5.7C-9.2,215.1-4.7,214.8,0.2,214.5z"/>
<path id="XMLID_4574_" class="st0" d="M45.6,134.4c2.6,5.9,4.5,11.5,7.5,16.4c1.2,2.1,4.6,2.8,7.5,3.8c-0.7-7.4-2.9-14.1-6.8-20
	C52.9,133.3,48.4,134.4,45.6,134.4z"/>
<path id="XMLID_4573_" class="st0" d="M74.9,131.2c-2.1-4.2-3.9-8.7-6.5-12.6c-0.9-1.3-3.7-1.6-5.6-1.9c-1.7-0.3-3.4-0.1-5.9-0.1
	c2.6,5,4.2,10.1,7.5,13.7c1.8,2,6.3,1.6,9.6,2.2C74.3,132.1,74.6,131.6,74.9,131.2z"/>
<path id="XMLID_4572_" class="st0" d="M27.3,136.2c-1.2-1.3-2-2.2-2.8-3c-8.2-8.5-9.7-8.6-19.8-2c3.6,2.5,7,5.1,10.7,7.3
	c1,0.6,2.8,0.3,4.1,0C21.9,138,24.2,137.2,27.3,136.2z"/>
<path id="XMLID_4571_" class="st0" d="M56.2,133.7c2.4,7,4.8,13.7,7.1,20.4c6.4-0.7,6.7-1,5-7.1c-0.7-2.5-1.5-5-2.4-7.5
	C63.6,132.7,63.6,132.7,56.2,133.7z"/>
<path id="XMLID_4570_" class="st0" d="M14.9,139.8c-4.7-2.7-8.2-5.6-12.2-6.7c-2-0.5-5.3,1.8-7.1,3.7c-0.9,1-0.4,4.3,0.6,5.8
	c1.5,2.4,4,3,6.9,1.7C6.5,142.8,10.1,141.6,14.9,139.8z"/>
<path id="XMLID_4569_" class="st0" d="M52.6,131.2c-2.7-3.9-5.3-7.9-8.2-11.6c-0.7-0.8-2.6-1.1-3.9-0.9c-2.4,0.3-4.8,1-7.5,1.6
	c3.5,4.1,6.3,8.5,10.1,11.4c2,1.5,5.9,0.7,8.9,0.9C52.2,132.1,52.4,131.6,52.6,131.2z"/>
<path id="XMLID_4568_" class="st0" d="M65.9,133.7c1.8,5.9,3.7,11.8,5.5,17.7c6.2-1.3,6.2-1.3,5.8-7.2c0-0.6-0.1-1.2-0.1-1.7
	C76.3,133.5,75.4,132.7,65.9,133.7z"/>
<path id="XMLID_4567_" class="st0" d="M89,118.1c-4.3-11.5-7.6-14.1-17.7-14C74.7,111.8,78.3,119.3,89,118.1z"/>
<path id="XMLID_4566_" class="st0" d="M2.1,225.8c2.2,0,3.8,0.1,5.4,0c8.8-0.4,9.1-0.8,7.4-10.3c-4.1,0.3-8.2,0.5-12.8,0.8
	C2.1,219.5,2.1,222.6,2.1,225.8z"/>
<path id="XMLID_4565_" class="st0" d="M45.2,116.9c3.5,5.5,5.6,9.9,8.8,13.4c1.5,1.6,5.1,1.3,7.7,1.9c0.3-0.4,0.5-0.9,0.8-1.3
	c-2.4-4.3-4.2-9.1-7.4-12.6C53.6,116.6,49.4,117.4,45.2,116.9z"/>
<path id="XMLID_4564_" class="st0" d="M56,300.4c10.4,3.1,9.8,3.4,15.5-9.6C63,288.1,62.4,288.4,56,300.4z"/>
<path id="XMLID_4563_" class="st0" d="M41.4,116.3c-5.9-9.2-8.3-9.8-18.5-5C28.1,118.8,31.8,119.8,41.4,116.3z"/>
<path id="XMLID_4562_" class="st0" d="M15.3,213.8c0-3.3,0-5.9,0-9.1c-4.4,0.3-8.5,0.5-13,0.7c0,2.9,0,5.6,0,9
	C6.5,214.2,10.7,214,15.3,213.8z"/>
<path id="XMLID_4561_" class="st0" d="M65.5,114.8c-4.2-10.2-8.3-12.6-16.9-10.2C52.9,114.3,55.1,115.7,65.5,114.8z"/>
<path id="XMLID_4560_" class="st0" d="M47.2,228.1c1.6-0.3,3.5-0.1,4.7-0.9c1.8-1.2,3.1-3.1,4.6-4.6c-1.6-1.5-3-3.7-4.9-4.4
	c-4.2-1.6-9.9,1.9-10.3,6.3C40.9,228.9,45,227.2,47.2,228.1z"/>
<path id="XMLID_4559_" class="st0" d="M83.6,260.4c0.9-3.7,1.7-7.1,2.5-10.7c-3.6-0.9-6.6-1.7-9.7-2.5
	C73.1,258,71.9,258.8,83.6,260.4z"/>
<path id="XMLID_4558_" class="st0" d="M17.2,224.8c12.8-1,11.9-0.3,10.9-11.2c-3.6,0.6-7.1,1.1-10.9,1.7
	C17.2,218.4,17.2,221.4,17.2,224.8z"/>
<path id="XMLID_4557_" class="st0" d="M35.9,107.4c4.9,4.8,8.2,11.9,16.6,7.4C49.4,105.2,45.5,103.3,35.9,107.4z"/>
<path id="XMLID_4556_" class="st0" d="M-14.1,217.1c3.3,7.2,7.2,9.8,13.8,8.8c0.2-2.9,0.5-6,0.8-9.8
	C-4.6,216.5-9.2,216.8-14.1,217.1z"/>
<path id="XMLID_4555_" class="st0" d="M1.9,203.5c2.7,0,4.7,0.1,6.8,0c2-0.1,4-0.4,6.2-0.7c0-2.7,0-5.2,0-8.4
	c-4.1,0.5-8,0.4-11.4,1.6C-0.7,197.3,2.5,200.8,1.9,203.5z"/>
<path id="XMLID_4554_" class="st0" d="M61.8,92c3.9,7.2,9,12.1,17.9,10.9C75.6,94,70.5,90.8,61.8,92z"/>
<path id="XMLID_4553_" class="st0" d="M62.3,265.6c-2.8-1.5-5.4-2.5-7.4-4.1c-2.8-2.3-5.6-2.9-8.9-2.1c-5.2,1.2-10.3,2.4-15.5,3.5
	c0,0.5,0.1,0.9,0.1,1.4c6.2,0,12.4-0.1,18.6,0.1c2.8,0.1,5.6,0.9,8.4,1.3C59,265.8,60.6,265.6,62.3,265.6z"/>
<path id="XMLID_4552_" class="st0" d="M104.5,141.5c-0.5-13-3.4-17.9-10.8-19c1.3,4.8,2.1,9.7,4,14.1
	C98.6,138.7,101.8,139.8,104.5,141.5z"/>
<path id="XMLID_4551_" class="st0" d="M17.3,204.5c0,3,0,5.7,0,9c3.9-0.6,7.4-1.1,11.1-1.7c0-3.1,0-5.8,0-9
	C24.5,203.4,21,203.9,17.3,204.5z"/>
<path id="XMLID_4550_" class="st0" d="M85.3,136.1c0.3,3.7,0.5,6.9,0.8,10.4c3.4,0,6.5,0,9.6,0C98.5,139.2,95.8,137.8,85.3,136.1z"
	/>
<path id="XMLID_4549_" class="st0" d="M18.5,141c3.7,7.3,11.1,4.6,17.2,6.8C31.4,137.8,27.7,136.5,18.5,141z"/>
<path id="XMLID_4548_" class="st0" d="M68.6,302c8.5,0.5,10.2-1,12.8-11.1c-5.8-1.6-7.1-1-9.6,3.8c-1.1,2.2-2.3,4.4-3.4,6.5
	C68.4,301.4,68.5,301.5,68.6,302z"/>
<path id="XMLID_4547_" class="st0" d="M66,101.2c-4.6-9.1-7.6-10.7-16.6-8.4C54.3,97.3,57.3,104.3,66,101.2z"/>
<path id="XMLID_4546_" class="st0" d="M16.3,194.2c0.3,3,0.5,5.5,0.7,8.7c3.9-0.6,7.4-1.1,11.3-1.7c-0.2-2.7-0.3-5.1-0.5-8.2
	C24.1,193.4,20.6,193.7,16.3,194.2z"/>
<path id="XMLID_4545_" class="st0" d="M88.8,238.6c-2.4-0.4-4.1-0.7-5.8-1.1c-1.5-0.3-3-0.7-5.3-1.3c-0.2,3.2-1.5,6.9-0.2,8.8
	c1.2,1.8,6.2,3.2,7.7,2.1C87.3,245.7,87.6,241.8,88.8,238.6z"/>
<path id="XMLID_4544_" class="st0" d="M43.5,103c-4.5-8-7.5-8.6-16.4-3.1C32.5,106,34.7,106.4,43.5,103z"/>
<path id="XMLID_4543_" class="st0" d="M75.1,288.5c8.8,0.3,9.7-0.7,12.2-12.6c-4.6-1.2-7.8-0.3-9,5
	C77.7,283.4,76.3,285.7,75.1,288.5z"/>
<path id="XMLID_4542_" class="st0" d="M82.6,132.5c-1.8-4.5-3.1-9.3-5.5-13.5c-0.9-1.5-4.2-1.6-7.2-2.6c2.4,5.6,4.2,10.3,6.5,14.7
	c0.7,1.4,3.3,1.7,5,2.5C81.8,133.2,82.2,132.9,82.6,132.5z"/>
<path id="XMLID_4541_" class="st0" d="M75.1,115.6c-3.9-10.8-6.1-12.6-15.5-12C64.9,108,65.6,116.7,75.1,115.6z"/>
<path id="XMLID_4540_" class="st0" d="M-5.1,170.7c11.3-5.3,21.9-8,34-2.5C18.4,159.2,6,158.7-5.1,170.7z"/>
<path id="XMLID_4539_" class="st0" d="M15.3,227c-4.1,0.2-7.3,0.1-10.4,0.6c-1.3,0.2-3.5,1.7-3.5,2.3c0.2,1.6,1.3,4.2,2.4,4.4
	c3.1,0.5,6.6,0.6,9.4-0.4C14.4,233.5,14.5,229.9,15.3,227z"/>
<path id="XMLID_4538_" class="st0" d="M90.7,226.7c-3-0.6-5.6-1.1-8.2-1.7c-0.8,3.2-1.6,6.2-2.4,9.3C86.9,238.8,89,237.4,90.7,226.7
	z"/>
<path id="XMLID_4537_" class="st0" d="M0.3,203.7c-0.2-2.6-0.3-4.6-0.5-7.1c-6.4,1.2-12.3,2.4-17.7,8.4
	C-11.3,204.5-5.8,204.1,0.3,203.7z"/>
<path id="XMLID_4536_" class="st0" d="M55,101.4c-7.1-9-8.4-9.5-15.4-6.3C45.4,103.4,46.3,103.7,55,101.4z"/>
<path id="XMLID_4535_" class="st0" d="M26.8,234.5c-3.2,0.4-6.5,0-8.8,1.3c-1.9,1.1-2.8,4.2-4.3,6.8
	C24.2,244.3,27.1,242.5,26.8,234.5z"/>
<path id="XMLID_4534_" class="st0" d="M95.5,207c-4-0.5-7.2-0.9-10.8-1.4c-0.5,2.3-1,4.6-1.7,8c3.4,0.3,6.8,1.6,9.6,0.7
	C94.1,213.8,94.5,209.8,95.5,207z"/>
<path id="XMLID_4533_" class="st0" d="M39.7,198.2c-10.2,4.1-10.2,4.1-9.1,12.1C38.7,209.6,41.5,205.9,39.7,198.2z"/>
<path id="XMLID_4532_" class="st0" d="M93.5,216.9c-4.2-0.6-7.2-1-11.1-1.6c-0.1,2.4-1.2,6.1-0.1,7c2,1.6,5.7,2.7,8,1.9
	C91.9,223.8,92.4,219.8,93.5,216.9z"/>
<path id="XMLID_4531_" class="st0" d="M16.6,226.9c-0.2,2.3-0.4,4.4-0.6,6.5c9.7,1.4,12.3-0.4,11.8-8.3
	C24.1,225.7,20.5,226.3,16.6,226.9z"/>
<path id="XMLID_4530_" class="st0" d="M51.7,320.1c-8.2-4.9-13.7,0-20,4.8C39.3,325.1,46.2,325.7,51.7,320.1z"/>
<path id="XMLID_4529_" class="st0" d="M85.1,107.1c4.6,5.6,4.6,14.1,14.3,14.6C96.1,115.5,94.9,108.2,85.1,107.1z"/>
<path id="XMLID_4528_" class="st0" d="M91.2,262.3c-7.3-0.2-7.3-0.1-9.6,11.2C89,274.8,88.9,274.5,91.2,262.3z"/>
<path id="XMLID_4527_" class="st0" d="M64.6,304.1c-3-0.5-5.1-0.5-6.9-1.2c-3.9-1.5-5.1,1.6-5.9,3.9c-0.4,1,1.5,3.4,2.9,4.4
	c2,1.5,4.3,1.6,5.9-1.2C61.6,308.1,63,306.4,64.6,304.1z"/>
<path id="XMLID_4526_" class="st0" d="M39.8,208.9c-10.1,4.1-10.4,4.4-9.3,13.1C36.5,221.5,40.3,216.1,39.8,208.9z"/>
<path id="XMLID_4525_" class="st0" d="M28.6,118.9c-2.6-2-5.1-3.9-7.9-6.1c-2.3,3.1-4.4,5.8-7,9.3C19.6,125.2,23.6,120,28.6,118.9z"
	/>
<path id="XMLID_4524_" class="st0" d="M85.9,260.2c6.7,0.8,7.1,0.3,8.4-10.7C87.4,248.4,86.2,250,85.9,260.2z"/>
<path id="XMLID_4523_" class="st0" d="M67.2,278c2.6,1,4.5,1.7,6.4,2.4c-1.4,2.5-2.8,4.9-4.3,7.6c2.2,1.2,4.2,0.9,5.4-2.5
	c1.1-3.1,2.5-6.1,4-9.5c-3.4-0.6-6.4-1.1-9.8-1.7C68.2,275.6,67.6,277,67.2,278z"/>
<path id="XMLID_4522_" class="st0" d="M77.7,134.4c0.5,4.9,1.1,9.4,1.6,13.9c4.2,0.1,5.2-1.9,5-5.5
	C83.9,135.3,83.8,135.1,77.7,134.4z"/>
<path id="XMLID_4521_" class="st0" d="M17.8,323.1c7.5,2.7,13.6,0.2,19.1-4.5C30.3,318.6,23.5,317.4,17.8,323.1z"/>
<path id="XMLID_4520_" class="st0" d="M75.4,94.1c4.9,5,6.8,12.1,14.7,12.1C87.9,99.3,82.6,94.6,75.4,94.1z"/>
<path id="XMLID_4519_" class="st0" d="M110.9,144.4c-1.6-6.3,0.7-14-7.3-17.6C106.6,132.4,103.6,140.4,110.9,144.4z"/>
<path id="XMLID_4518_" class="st0" d="M29.9,200.1c8.7-1.8,10.7-4,8.7-9.3c-1.4,0.3-2.7,0.6-4.1,0.9c-1.4,0.3-2.8,0.6-4.6,1
	C29.9,195,29.9,197.4,29.9,200.1z"/>
<path id="XMLID_4517_" class="st0" d="M23.9,252.5c0.8-3.1,1.4-5.5,2.2-8.7c-3.7,0.4-7,0.7-10.2,1.2c-0.8,0.1-1.8,1.1-1.9,1.9
	c-0.1,0.7,0.6,2,1.3,2.3C17.8,250.4,20.6,251.3,23.9,252.5z"/>
<path id="XMLID_4516_" class="st0" d="M95,197.5c1-3.3,0.5-5.2-3.2-5.7c-2.3-0.3-4.5-1.8-6.8-2.8C83.9,196.4,86.1,198.2,95,197.5z"
	/>
<path id="XMLID_4515_" class="st0" d="M47.7,192.1c-5.8,1.7-6.3,2.6-5.5,10.5C50.5,200.6,51.7,198.3,47.7,192.1z"/>
<path id="XMLID_4514_" class="st0" d="M91,235.9c6.7,0.7,7.6-0.4,7.8-9.4C92,225.9,91.8,226.1,91,235.9z"/>
<path id="XMLID_4513_" class="st0" d="M74.3,229.4c2.4-6.3-2.1-9.7-9.2-8.8C65.9,225.9,68,228,74.3,229.4z"/>
<path id="XMLID_4512_" class="st0" d="M88.6,247.2c6.9,0.6,7.4-0.1,7.7-9.1C89.6,237.5,89.4,237.8,88.6,247.2z"/>
<path id="XMLID_4511_" class="st0" d="M61.7,280.5c-8.9-0.4-17-0.8-25.1-1.1C38.3,284.3,41.6,284.5,61.7,280.5z"/>
<path id="XMLID_4510_" class="st0" d="M70.7,164.7c-0.2-3.3-0.5-6.6-0.7-10.5c-2.6,2-6.8-0.2-6.5,5.2
	C63.7,164.5,66.4,164.9,70.7,164.7z"/>
<path id="XMLID_4509_" class="st0" d="M54.2,154.8c0.8,9.4,1.8,10.5,7.7,8.9C62.4,156.4,62,155.8,54.2,154.8z"/>
<path id="XMLID_4508_" class="st0" d="M-16.4,170.8c8,0.2,10.8-8.5,17.7-10.2C-5.7,162-12.7,163.5-16.4,170.8z"/>
<path id="XMLID_4507_" class="st0" d="M95.5,200c-4.1-0.8-7.2-1.3-11.3-2.1c0.6,2.2,0.6,5.2,1.6,5.6c2.7,1.1,5.8,1.1,8.8,1.1
	C94.9,204.6,95.2,201.7,95.5,200z"/>
<path id="XMLID_4506_" class="st0" d="M103,204.6c-6.8,2.2-6.8,2.2-7.3,9.5C102.4,214.8,103.9,212.9,103,204.6z"/>
<path id="XMLID_4505_" class="st0" d="M68.6,90.1c-4.7-5.9-6.8-6.7-14-5.2C57.7,89.9,59.4,90.5,68.6,90.1z"/>
<path id="XMLID_4504_" class="st0" d="M61.5,312.3c5.8-1.7,10.8-2.8,13.6-8.1C66.8,303,66.6,303.1,61.5,312.3z"/>
<path id="XMLID_4503_" class="st0" d="M101.3,216c-7.2,0.2-7.2,0.2-7.7,8.1C99.6,225.3,100.2,224.7,101.3,216z"/>
<path id="XMLID_4502_" class="st0" d="M26.3,251.7c5.4-0.6,6.7-2.3,7.7-9.7C27.6,242.2,26.9,243.1,26.3,251.7z"/>
<path id="XMLID_4501_" class="st0" d="M66.7,176.7c-0.7,7.7,0.4,10,5,10.9C73.2,179.8,71.9,176.8,66.7,176.7z"/>
<path id="XMLID_4500_" class="st0" d="M91.8,167.6c5.8,1.2,11,1.9,13.2,8.5c2-3.6,1.3-5.8-0.8-7.8
	C100.9,165.1,97.1,164.7,91.8,167.6z"/>
<path id="XMLID_4499_" class="st0" d="M43,87c4.1,4.6,4.1,4.6,12.5,2.7C52.1,84.4,50.8,84.1,43,87z"/>
<path id="XMLID_4498_" class="st0" d="M61.1,186.4c1.5,0,2.8,0,4,0c0.9-8.4-0.5-10.9-5.7-9.8c0,0.7-0.1,1.4,0,2.1
	C60,181.2,60.6,183.7,61.1,186.4z"/>
<path id="XMLID_4497_" class="st0" d="M3.6,318.9c8,4.3,10.5,4.4,16.6,0c-6-0.6-11.3-1.1-16.6-1.7C3.6,317.9,3.6,318.4,3.6,318.9z"
	/>
<path id="XMLID_4496_" class="st0" d="M71,175.1c0.6-8.3,0.2-8.8-5.7-8.9C64.1,172.8,65.1,174.4,71,175.1z"/>
<path id="XMLID_4495_" class="st0" d="M100.8,184.9c-4.1-0.4-8.4-1-12.7-1.3c-1.2-0.1-2.4,0.7-3.7,1.1c1,0.8,1.8,2.1,2.9,2.4
	C92.4,188.6,97.2,188,100.8,184.9z"/>
<path id="XMLID_4494_" class="st0" d="M-5.2,308c-4.9-1.4-9.1-2.6-13.3-3.8C-14.5,311.6-11.1,312.6-5.2,308z"/>
<path id="XMLID_4493_" class="st0" d="M106.8,125.6c-2.2-5.7-3-11.4-10.7-13.6C100.2,116.9,99.4,123.7,106.8,125.6z"/>
<path id="XMLID_4492_" class="st0" d="M99.6,235.1c5.2-0.6,6.2-2.1,6.2-9.8C101.7,224.4,100.4,224.6,99.6,235.1z"/>
<path id="XMLID_4491_" class="st0" d="M3.9,316.2c-6.8-6.5-7.1-6.6-12.9-3.2C-5,315.3-1.7,319,3.9,316.2z"/>
<path id="XMLID_4490_" class="st0" d="M60.9,188.8c2.4,3.3-1.1,9.2,5.8,9.6C68.1,191.2,66.5,188,60.9,188.8z"/>
<path id="XMLID_4489_" class="st0" d="M28.6,240.9c7.2-1.1,8-2.5,5.8-8.4C28.6,233.4,28.5,233.5,28.6,240.9z"/>
<path id="XMLID_4488_" class="st0" d="M105.7,201.8c1.3,0,2.7,0,4.8,0c-0.3-3.4-0.6-6.7-0.9-10C104.8,193.4,104.5,194.3,105.7,201.8
	z"/>
<path id="XMLID_4487_" class="st0" d="M100.7,111.5c-3.6-5.8-6.2-11.2-13.7-13.5C91.4,103.2,93.1,109.4,100.7,111.5z"/>
<path id="XMLID_4486_" class="st0" d="M84.9,152.5c4.2,0,7.4,0,11.2,0c-0.1-1.5-0.1-3.9-0.3-3.9c-2.9-0.2-5.8-0.4-8.6,0
	C86.3,148.7,85.8,150.8,84.9,152.5z"/>
<path id="XMLID_4485_" class="st0" d="M68.5,209.7c0.6-8-0.2-9.7-4.6-9.7C62.7,207.6,63.7,209.6,68.5,209.7z"/>
<path id="XMLID_4484_" class="st0" d="M62.8,165.9c-2.1,0.2-3.7,0.3-5.8,0.5c0.6,2.8,1.2,5.3,1.8,7.9c1.7,0,3.2,0,5.2,0
	C63.5,171.4,63.2,168.9,62.8,165.9z"/>
<path id="XMLID_4483_" class="st0" d="M104.1,213.2c5.7-0.4,6.6-1.8,6.1-9.4c-0.8-0.1-1.6-0.2-2.4-0.2c-0.7,0-1.4,0.2-2.3,0.4
	C105,207,104.6,209.9,104.1,213.2z"/>
<path id="XMLID_4482_" class="st0" d="M64.3,211.6c-0.6,6.8-0.6,6.8,7.3,7.5C69.7,215.9,71.1,210.2,64.3,211.6z"/>
<path id="XMLID_4481_" class="st0" d="M97.2,246.4c4.9-0.5,5.6-1.8,6-9.4C98,236.9,97.3,238,97.2,246.4z"/>
<path id="XMLID_4480_" class="st0" d="M100.5,248.1c-4.7,0.7-5.7,2.6-5.9,11.2C98.5,259.1,99.5,257.3,100.5,248.1z"/>
<path id="XMLID_4479_" class="st0" d="M102,223.6c5.5-0.6,5.9-1.1,6.3-8.6C102.9,214.8,102.7,215,102,223.6z"/>
<path id="XMLID_4478_" class="st0" d="M48.3,202.3c-6,2.5-6,2.5-6.7,10.9c0.3,0.2,0.7,0.4,1,0.7c2.3-3.6,4.7-7.1,7-10.7
	C49.1,202.9,48.7,202.6,48.3,202.3z"/>
<path id="XMLID_4477_" class="st0" d="M98.5,140.6c-0.5,7-0.5,7,5.9,7.8C105.7,143,105.6,143,98.5,140.6z"/>
<path id="XMLID_4476_" class="st0" d="M106,152.4c0,2.8-0.1,5.4,0.1,8c0.1,0.8,1,2.2,1.6,2.2c0.9,0,2.2-0.7,2.7-1.5
	C113,157.1,111.8,154.6,106,152.4z"/>
<path id="XMLID_4475_" class="st0" d="M90.8,272.8c3.8,0,4.4-1.2,6.2-10.9C93,261.6,92.2,263.1,90.8,272.8z"/>
<path id="XMLID_4474_" class="st0" d="M67.4,188.8c2.1,4.1-0.8,9.3,5.2,10.9C74,193.1,72.8,190.1,67.4,188.8z"/>
<path id="XMLID_4473_" class="st0" d="M85.8,287.5c3.2-0.6,5.3-4.3,7-12C89.3,275.1,87,279.1,85.8,287.5z"/>
<path id="XMLID_4472_" class="st0" d="M12.9,243.4c0.4-2.6,0.7-4.6,1.1-6.9c-2.6,0-5,0-8.3,0C8.3,239.1,6.8,244.5,12.9,243.4z"/>
<path id="XMLID_4471_" class="st0" d="M22.3,109.4c3.3-1.1,6-2,9.6-3.2c-3-2.1-5.3-3.7-8.2-5.7C23.2,103.8,22.8,106.3,22.3,109.4z"
	/>
<path id="XMLID_4470_" class="st0" d="M69.5,272.4c7.7,2.6,9.3,2.3,10.6-1.6C70.5,269.2,70.5,269.2,69.5,272.4z"/>
<path id="XMLID_4469_" class="st0" d="M44.4,91.4c-3.4-5.5-7.2-3.3-11-1.5C36.4,95,40.2,93,44.4,91.4z"/>
<path id="XMLID_4468_" class="st0" d="M79.9,91.3c-3.8-2.3-7.7-4.6-11.5-6.9c-0.4,0.7-0.8,1.4-1.3,2.1c3.9,2.3,7.7,4.6,11.6,6.9
	C79.1,92.7,79.5,92,79.9,91.3z"/>
<path id="XMLID_4467_" class="st0" d="M79.8,223.9c-2.9-3.5-2.2-9.5-7.6-11.3c-0.5,0.3-1,0.7-1.5,1c2.5,3.8,5,7.6,7.5,11.4
	C78.8,224.6,79.3,224.2,79.8,223.9z"/>
<path id="XMLID_4466_" class="st0" d="M23.9,99.1c4.1-1.8,7.4-3.2,10.7-4.6C30.9,89.9,27.8,91,23.9,99.1z"/>
<path id="XMLID_4465_" class="st0" d="M70.2,201.3c1,3.4-2,8.2,4.6,10.3C73.4,207.5,75.7,202.9,70.2,201.3z"/>
<path id="XMLID_4464_" class="st0" d="M103,188.9c-2.7,2.3-7.7,2.6-5.6,8.1C102.7,196.7,104.1,194.7,103,188.9z"/>
<path id="XMLID_4463_" class="st0" d="M104.5,190.2c5.4-1.2,5.8-2.6,3-9.2C106.5,184.1,105.5,187.2,104.5,190.2z"/>
<path id="XMLID_4462_" class="st0" d="M97.4,204.7c3.5-1.2,7.6-1.7,5.7-7.4C100.2,198.9,95.5,198.6,97.4,204.7z"/>
<path id="XMLID_4461_" class="st0" d="M111.6,152.9c1.2-4.5-0.7-6.8-4.4-7.9C104.8,149.7,107.8,151.3,111.6,152.9z"/>
<path id="XMLID_4460_" class="st0" d="M87.5,289.9c-3.9,0.6-6.5,4.9-7.9,11c0.3,0.2,0.7,0.4,1,0.7C82.8,297.9,84.9,294.3,87.5,289.9
	z"/>
<path id="XMLID_4459_" class="st0" d="M73.8,187.9c0.7,3.5,1.4,7,2.1,10.6c0.4-0.1,0.8-0.2,1.2-0.3C78.8,193.5,78.5,192,73.8,187.9z
	"/>
<path id="XMLID_4458_" class="st0" d="M90.8,177.6c1.7,0.6,3.4,1.4,5.2,1.6c0.9,0.1,1.9-0.7,2.9-1.1c-0.6-1-1.2-2.9-1.9-3
	c-2.1-0.1-4.1,0.5-6.2,0.8C90.8,176.5,90.8,177,90.8,177.6z"/>
<path id="XMLID_4457_" class="st0" d="M81.9,212.7c-0.2-3.9,3.2-7.4-2.5-9.9C80.3,206.4,76.9,209.7,81.9,212.7z"/>
<path id="XMLID_4456_" class="st0" d="M72.5,162c1.6-3.7,2.8-6.7,4.1-9.7C71,153.1,70.8,153.4,72.5,162z"/>
<path id="XMLID_4455_" class="st0" d="M33.7,230.6c-0.3-2.5-0.5-4.5-0.7-6.5c-3.5,0.8-3.5,0.8-3.5,7.4
	C30.9,231.3,32.1,231,33.7,230.6z"/>
<path id="XMLID_4454_" class="st0" d="M57.6,292.1c-2.7,2.1-4.9,3.8-7.2,5.7C54.2,300.5,56.3,298.9,57.6,292.1z"/>
<path id="XMLID_4453_" class="st0" d="M103.8,155.3c1.5-6.2-2.8-5.1-5.2-6.4C96.3,154.7,101.7,152.9,103.8,155.3z"/>
<path id="XMLID_4452_" class="st0" d="M7.5,144.9c3.9,0,7.3,0,10.7,0C16.4,140.6,15.1,140.6,7.5,144.9z"/>
<path id="XMLID_4451_" class="st0" d="M79.6,194.5c0.4,3.1-1.7,6.3,2.9,7.6C82.9,199.2,84.1,196.3,79.6,194.5z"/>
<path id="XMLID_4450_" class="st0" d="M81.6,186.2c-0.7,1-2.1,2-2,2.8c0.1,1.6,1.1,3.1,1.8,4.6c0.4-0.1,0.8-0.2,1.1-0.3
	c0-2.1,0-4.3,0-6.4C82.2,186.6,81.9,186.4,81.6,186.2z"/>
<path id="XMLID_4449_" class="st0" d="M80.4,156c1.4-1.8,2.8-3.6,4.2-5.5c-0.4-0.3-0.8-0.6-1.2-0.9c-2.8,0.8-4.8,2.2-4.2,5.4
	C79.6,155.3,80,155.6,80.4,156z"/>
<path id="XMLID_4448_" class="st0" d="M77.4,208.3c0.3-2.8,1.6-5.8-2.5-9.1c0.5,3.8,0.8,6.5,1.1,9.2
	C76.5,208.5,76.9,208.4,77.4,208.3z"/>
<path id="XMLID_4447_" class="st0" d="M-127.4,152.3c5.6,7.4,5.8,7.5,13.8,5.3C-116.5,150-120.2,148.6-127.4,152.3z"/>
<path id="XMLID_4446_" class="st0" d="M-119.2,160.4c2.3,5.6,5.9,8.8,11.9,8.8C-108.1,160.8-111.4,158.2-119.2,160.4z"/>
<path id="XMLID_4445_" class="st0" d="M-87.9,148.3c2.1,5.2,2.1,11.7,9.9,11.2C-77.7,152-80.3,148.8-87.9,148.3z"/>
<path id="XMLID_4444_" class="st0" d="M-99.8,170.2c-1.1-2.8-2.4-5.6-3.3-8.5c-1.1-3.6-3.3-4.5-6.8-2.9c1.5,3.6,2.8,7.3,4.7,10.6
	c0.9,1.5,3.1,3.3,5.2,0.7L-99.8,170.2z"/>
<path id="XMLID_4443_" class="st0" d="M-152.1,206.6c0.7,5.8,0.8,5.9,11.5,4.2c1.3-5.2,1-5.6-4-5.4c-1.9,0.1-3.7,0.2-5.6,0.5
	C-150.8,205.9-151.5,206.3-152.1,206.6z"/>
<path id="XMLID_4442_" class="st0" d="M-91.7,156.4c-1.8-8.5-3.5-10.1-10-9.3C-100.7,154.7-97.6,157.6-91.7,156.4z"/>
<path id="XMLID_4441_" class="st0" d="M-136.3,156.4c6.4,5.7,7.7,6,13.4,3C-127.9,152.4-130.3,151.8-136.3,156.4z"/>
<path id="XMLID_4440_" class="st0" d="M-99.9,170c1.4,0.3,2.8,0.6,4.3,0.8c0.2-1.3,0.7-2.7,0.4-3.9c-0.4-2-1.2-3.8-1.8-5.8
	c-0.9-3.2-2.8-4.1-5.7-3c1,4.1,2,8.1,2.9,12C-99.8,170.2-99.9,170-99.9,170z"/>
<path id="XMLID_4439_" class="st0" d="M-130.4,162c-3-1.8-4.9-3.6-7.2-4.1c-1.5-0.3-3.7,0.8-5.1,1.8c-0.6,0.5-0.6,3.2,0.1,3.7
	c1.1,0.9,3,1.4,4.5,1.2C-135.9,164.4-133.8,163.3-130.4,162z"/>
<path id="XMLID_4438_" class="st0" d="M-108.5,151c-2.7-3.2-5.7-3.9-9.6-1.2c4,2.4,4.7,9.5,12,6.8c-0.8-2-1.7-3.9-2.5-5.8
	L-108.5,151z"/>
<path id="XMLID_4437_" class="st0" d="M-96.9,158.1c1.3,4,2.5,7.7,3.7,11.5c6.4-1.1,3.4-5.5,3.2-8.5
	C-90.3,156.4-93.9,158.3-96.9,158.1z"/>
<path id="XMLID_4436_" class="st0" d="M-138.5,218.7c2.6-0.2,5.3-0.4,8.2-0.6c0-2.2,0-4.1,0-5.8C-138.5,211-139.7,211.9-138.5,218.7
	z"/>
<path id="XMLID_4435_" class="st0" d="M-95.6,259.7c-4.4,0.5-5.9,3.9-7.3,7.4c4.6,3.9,6.7-0.2,9.2-2.8c-0.1,0-0.3,0.1-0.4,0.1
	C-93.1,262.3-93.3,260.6-95.6,259.7L-95.6,259.7z"/>
<path id="XMLID_4434_" class="st0" d="M-84.2,141.9c-2.6-1.4-5.2-2.7-7.9-4.1c1.8,8.3,3.3,9.5,10,9.5
	C-82.9,145.5-83.6,143.7-84.2,141.9L-84.2,141.9z"/>
<path id="XMLID_4433_" class="st0" d="M-90.8,225.1c-4.4-1.2-8.2-2.2-12-3.2c-0.2,0.4-0.3,0.8-0.5,1.1c0.6,0.4,1.2,0.9,1.3,0.9
	c-0.2,1.3-0.9,2.7-0.5,3.3C-100.8,229.7-96.6,229-90.8,225.1z"/>
<path id="XMLID_4432_" class="st0" d="M-108.6,150.9c0.8,0.9,2,1.7,2.5,2.8c1.4,2.9,3.4,3.7,6.3,2.5c-2.2-8.2-4-9.7-9.6-8.3
	c0.3,1.1,0.6,2.1,1,3.1C-108.5,151-108.6,150.9-108.6,150.9z"/>
<path id="XMLID_4431_" class="st0" d="M-138.4,210.7c8.3,0.5,8.5,0.4,8-5.3C-137.2,203.5-139.4,204.8-138.4,210.7z"/>
<path id="XMLID_4430_" class="st0" d="M-83.3,234.4c-2.6-0.7-4.5-1.2-7.3-2c-0.1,2.6-0.7,5-0.1,7.1c0.3,0.9,4.1,1.9,4.4,1.4
	C-84.9,239.2-84.3,236.8-83.3,234.4z"/>
<path id="XMLID_4429_" class="st0" d="M-122.6,146.5c3.1,2,6.1,1.7,9.3,0.1c-4-6.3-4.9-6.5-11.7-3.1c0.9,1.1,1.7,2.1,2.5,3.2
	L-122.6,146.5z"/>
<path id="XMLID_4428_" class="st0" d="M-97.1,144c-0.8-0.8-1.9-1.4-2.4-2.3c-2.1-3.5-4.9-4.2-8.7-2.5c2.3,3.4,3.7,8,9.3,6.5
	c0.7-0.2,1.1-1.2,1.6-1.9L-97.1,144z"/>
<path id="XMLID_4427_" class="st0" d="M-112.9,219.4c1.9,0.1,4,0.7,5.7,0.2c1.5-0.4,2.6-2.1,3.9-3.3c-1.8-1-3.7-2.9-5.2-2.6
	c-1.9,0.4-3.4,2.6-5.1,4C-113.4,218.3-113.1,218.8-112.9,219.4z"/>
<path id="XMLID_4426_" class="st0" d="M-129.1,217.5c7.5,0.4,8.3-0.4,7-6.9c-2.2,0.4-4.4,0.7-6.7,1.1
	C-128.9,213.7-129,215.4-129.1,217.5z"/>
<path id="XMLID_4425_" class="st0" d="M-130.7,198.2c-8.4,0.3-8.5,0.3-8.1,5C-131.7,205.1-129.9,204-130.7,198.2z"/>
<path id="XMLID_4424_" class="st0" d="M-116.2,140.8c3,3.1,4.9,7.8,10.3,4.6C-108.7,138.9-110,138.3-116.2,140.8z"/>
<path id="XMLID_4423_" class="st0" d="M-71.7,162.5c-0.5-8.2-1.8-10.5-7.3-11.9C-76.4,154.9-78.2,160.7-71.7,162.5z"/>
<path id="XMLID_4422_" class="st0" d="M-140.2,218.4c0-1.9,0-3.6,0-5.5c-2.9,0-5.7,0-9.2,0C-146.9,216.4-145.4,219.9-140.2,218.4z"
	/>
<path id="XMLID_4421_" class="st0" d="M-99.3,130.8c2.4,4.5,5.5,7.7,11.3,6.8C-90.5,133.2-93.1,129.4-99.3,130.8z"/>
<path id="XMLID_4420_" class="st0" d="M-94.1,264.4c0.1,0,0.3-0.1,0.4-0.1c-0.4,1.2-0.8,2.4-1.2,3.7c5,1.3,5.8,0.6,8.1-6.6
	C-90.6,259.2-92.1,262.6-94.1,264.4z"/>
<path id="XMLID_4419_" class="st0" d="M-82.9,251.4c-6.7-1.2-5.4,4.7-7.6,7.5C-85.6,260.4-85.2,260-82.9,251.4z"/>
<path id="XMLID_4418_" class="st0" d="M-101,244.3c-5.1-6.1-11.4-3.4-17.8-0.8C-112.8,243.8-106.7,244.1-101,244.3z"/>
<path id="XMLID_4417_" class="st0" d="M-83.3,232.5c0.4-2,0.7-3.7,1-5.5c-2.2-0.5-4.1-1-6-1.4C-90.7,231.2-90,232.2-83.3,232.5z"/>
<path id="XMLID_4416_" class="st0" d="M-129.2,197.8c0.1,1.9,0.2,3.4,0.2,4.9c6.9,0.6,7.8-0.1,6.7-5.7
	C-124.4,197.2-126.5,197.5-129.2,197.8z"/>
<path id="XMLID_4415_" class="st0" d="M-112,136.2c-3.2-3.1-6.6-3.7-10.1-0.2c2,2.6,4.4,4.2,7.7,2.7c0.9-0.4,1.5-1.8,2.2-2.7
	L-112,136.2z"/>
<path id="XMLID_4414_" class="st0" d="M-117.6,166.9c-2.9-6.8-3.8-7.1-10.1-3.9C-125.6,167.8-120.8,165.2-117.6,166.9z"/>
<path id="XMLID_4413_" class="st0" d="M-83.7,159.9c0,2.1,0,4.2,0,6.4c2.3,0,4.4,0,6.5,0C-76.4,161.3-77,160.7-83.7,159.9z"/>
<path id="XMLID_4412_" class="st0" d="M-121.9,204.1c-6.5-0.7-7.2-0.1-6.7,5.5C-122.3,210.7-121,209.7-121.9,204.1z"/>
<path id="XMLID_4411_" class="st0" d="M-97.2,143.8c1.9,0.9,3.8,1.8,6.5,3.1c-3-8.2-4.3-9.3-9.3-8.5c1,1.9,2,3.7,3,5.5
	C-97.1,144-97.2,143.8-97.2,143.8z"/>
<path id="XMLID_4410_" class="st0" d="M-107.3,131.2c5.2,6.2,5.2,6.2,10,5.4C-100,130.7-101.4,129.9-107.3,131.2z"/>
<path id="XMLID_4409_" class="st0" d="M-114.1,200.3c-3.3,2-8.4,2.1-5.6,7.8C-114.1,207-113.2,205.8-114.1,200.3z"/>
<path id="XMLID_4408_" class="st0" d="M-140.3,203.9c0-1.6,0-2.8,0-5.1c-4,1.6-7.4,3-10.8,4.4c0.1,0.5,0.3,1.1,0.4,1.6
	C-147.3,204.5-143.8,204.2-140.3,203.9z"/>
<path id="XMLID_4407_" class="st0" d="M-86,217.9c-0.3,1.5-0.4,2.5-0.6,3.5c-0.2,0.8-0.5,1.6-0.8,2.3c5.2,3,6,2.4,6.6-4.7
	C-82.4,218.7-84.1,218.4-86,217.9z"/>
<path id="XMLID_4406_" class="st0" d="M-130.1,229.8c7.5-0.2,7.8-0.4,7.2-5.2C-130.1,224.6-130.1,224.6-130.1,229.8z"/>
<path id="XMLID_4405_" class="st0" d="M-129.5,219.6c-3.5,0-5.7-0.1-7.8,0.1c-0.7,0.1-1.8,0.8-1.9,1.3c-0.1,0.8,0.3,2.5,0.8,2.5
	c2,0.4,4.3,0.8,6.2,0.4C-131.2,223.7-130.6,221.6-129.5,219.6z"/>
<path id="XMLID_4404_" class="st0" d="M-86.2,157.6c-2.1-9.3-2.8-10.2-8.1-9.7C-90.8,150.6-92.5,156.6-86.2,157.6z"/>
<path id="XMLID_4403_" class="st0" d="M-129.2,223.6c7.1,0.1,7.6-0.3,7-4.9C-129,218.5-129.4,218.7-129.2,223.6z"/>
<path id="XMLID_4402_" class="st0" d="M-84.3,141.9c1.4,1.9,2.6,4,4.1,5.7c1,1.1,2.6,1.5,3.9,2.3c0.3-0.8,0.5-1.6,0.8-2.4l0.1,0.3
	c-1-1.4-1.9-2.8-2.9-4.2C-79.9,141.7-81.6,140.1-84.3,141.9C-84.2,141.9-84.3,141.9-84.3,141.9z"/>
<path id="XMLID_4401_" class="st0" d="M-118.5,216.6c1.8-2.7,3.5-5.5,5.3-8.2c-7.8,1.7-7.9,1.8-6.7,7.3
	C-119.4,216-118.9,216.3-118.5,216.6z"/>
<path id="XMLID_4400_" class="st0" d="M-112.1,136c2.5,0.6,4.9,1.2,7.4,1.8c0.1-0.4,0.3-0.9,0.4-1.3c-2.4-2.7-4.1-6.7-9.3-3.9
	c0.6,1.2,1.1,2.4,1.7,3.6C-112,136.2-112.1,136-112.1,136z"/>
<path id="XMLID_4399_" class="st0" d="M-84.5,205.3c-0.4,1.8-0.6,3-0.9,4.2c5.1,3,6.6,2.3,7.4-3.4
	C-80.1,205.9-82.3,205.6-84.5,205.3z"/>
<path id="XMLID_4398_" class="st0" d="M-85.2,211.7c-2.2,4.7-1.7,5.3,4.8,6c0.4-1.5,0.8-3,1.3-4.9C-81.4,212.4-83.3,212-85.2,211.7z
	"/>
<path id="XMLID_4397_" class="st0" d="M-99,272.5c0.2-0.8,0.3-1.6,0.5-2.6c-1.1-0.2-2.2-0.7-3-0.5c-1.6,0.4-3.1,1.2-4.5,2
	c-0.1,0.1,0.7,2.5,1.2,2.6c1.6,0.1,3.2-0.3,4.7-0.7c0.5-0.1,0.9-0.7,1.3-1L-99,272.5z"/>
<path id="XMLID_4396_" class="st0" d="M-118.2,282.1c1,0.5,2.1,1.5,3.1,1.4c2.8-0.4,5.6-1.3,8.3-2.5c-2.9-2.1-5.6-2.6-8.4-0.3
	c-0.9,0.7-2,1-3.1,1.5L-118.2,282.1z"/>
<path id="XMLID_4395_" class="st0" d="M-122.4,146.7c-1.4-0.6-2.8-1.2-4.4-2c-1.3,1.8-2.6,3.6-4,5.5c4.6,1.5,8.8-0.6,8.3-3.7
	C-122.6,146.5-122.4,146.7-122.4,146.7z"/>
<path id="XMLID_4394_" class="st0" d="M-80.4,242.9c-4.5-0.6-5.3,0.4-5.8,6.9C-81.7,250-81.5,249.9-80.4,242.9z"/>
<path id="XMLID_4393_" class="st0" d="M-78.2,233.9c-6.4-0.3-4.5,4.3-5.8,7.3C-77.8,241.7-79.2,237.3-78.2,233.9z"/>
<path id="XMLID_4392_" class="st0" d="M-125,178.4c-5.4-3.4-11.3-2.8-15.8,1.8C-135.6,179.6-130,178.9-125,178.4z"/>
<path id="XMLID_4391_" class="st0" d="M-118.3,282.2c0.6-0.8,1.3-1.7,2.7-3.7c-4.7,1-8.4,1.7-12,2.5l0.1-0.1c0.3,0.7,0.7,1.9,1,1.9
	c2.8-0.1,5.5-0.5,8.3-0.7C-118.2,282.1-118.3,282.2-118.3,282.2z"/>
<path id="XMLID_4390_" class="st0" d="M-124.5,236c0.5-2.2,0.8-3.6,1.3-5.8c-3.1,0.5-5.5,1-7.9,1.4c-0.1,0.5-0.2,1.1-0.3,1.6
	C-129.2,234.1-127.1,234.9-124.5,236z"/>
<path id="XMLID_4389_" class="st0" d="M-67.1,164.5c-1.1-3.7-0.4-8.1-3.8-10.9c-0.5,0.2-0.9,0.4-1.4,0.5c1.1,3.7,2.3,7.4,3.4,11
	C-68.3,164.9-67.7,164.7-67.1,164.5z"/>
<path id="XMLID_4388_" class="st0" d="M-95.7,259.7c6.1,0.7,4.8-4.8,7.4-8.3c-3.1,0.3-5.6-2.6-7.8,1.3c1.6,0.4,2.8,0.7,5.2,1.4
	C-92.8,256.3-94.2,258-95.7,259.7C-95.6,259.7-95.7,259.7-95.7,259.7z"/>
<path id="XMLID_4387_" class="st0" d="M-81.3,137.9c-2.5-2.2-4.9-4.3-7.4-6.5c-0.5,0.5-0.9,1-1.4,1.4c2.2,2.2,4.3,4.4,6.6,6.4
	c0.1,0.1,1.3-1,2-1.5L-81.3,137.9z"/>
<path id="XMLID_4386_" class="st0" d="M-89,158.9c0.4,3,0.7,5.7,1,8.4c0.4,0.2,0.8,0.4,1.3,0.6c0.7-1.4,1.9-2.8,1.9-4.2
	C-85,161.6-84.4,158.3-89,158.9z"/>
<path id="XMLID_4385_" class="st0" d="M-84.4,194.5c-1,4.4,1.5,5.3,4.6,5.5c0.7,0.1,1.5-0.9,2.3-1.3c-0.5-0.8-0.8-1.9-1.5-2.2
	C-80.8,195.6-82.6,195.1-84.4,194.5z"/>
<path id="XMLID_4384_" class="st0" d="M-80,225.1c5.5,0.6,3.9-3.5,5.2-5.9C-79.6,218.8-79.9,219.2-80,225.1z"/>
<path id="XMLID_4383_" class="st0" d="M-114.3,195.9c-6.7,0.5-6.7,0.5-5.9,5.5C-117.3,200.8-114.3,200.4-114.3,195.9z"/>
<path id="XMLID_4382_" class="st0" d="M-112.1,202.9c5.3-1.4,5.4-1.7,3.3-6.5C-112.4,197.3-113.6,199.4-112.1,202.9z"/>
<path id="XMLID_4381_" class="st0" d="M-93.7,177.9c-0.2-2.1-0.5-3.9-0.7-5.7c-2.6-0.1-4.3,0.2-4,3.2
	C-98,178.2-96.6,178.7-93.7,177.9z"/>
<path id="XMLID_4380_" class="st0" d="M-82.4,232.2c5.8,1.4,4.9-2.5,5.7-5.3C-81.9,225.2-81.1,229.3-82.4,232.2z"/>
<path id="XMLID_4379_" class="st0" d="M-91.5,221.7c0.7-5.6-0.5-6.7-7.1-6.1C-95.8,218-93.9,219.6-91.5,221.7z"/>
<path id="XMLID_4378_" class="st0" d="M-84,199.5c-1.5,5,1.3,5,3.5,5.2c0.9,0.1,1.9-0.9,2.9-1.5C-79.6,202-81.6,200.9-84,199.5z"/>
<path id="XMLID_4377_" class="st0" d="M-102.9,254.6c-4-0.3-8.5-0.6-13-0.9C-113.5,257-108.9,257.2-102.9,254.6z"/>
<path id="XMLID_4376_" class="st0" d="M-99.7,178.1c0.7-3.9,0-6.2-4.7-5.8C-103.7,175-104.7,178.7-99.7,178.1z"/>
<path id="XMLID_4375_" class="st0" d="M-150,183.2c3-2.2,6-4.4,9.2-6.7C-145.8,176.7-149,178.7-150,183.2z"/>
<path id="XMLID_4374_" class="st0" d="M-98.8,272.3c0,0.8-0.1,1.6-0.2,3.3c3-1.7,5.6-3.2,8.1-4.6c-0.4-0.7-0.7-1.3-1.1-2
	c-2.3,1.2-4.7,2.3-7,3.5C-99,272.5-98.8,272.3-98.8,272.3z"/>
<path id="XMLID_4373_" class="st0" d="M-75.2,211.4c-1.4,1.6-2.8,3.3-4.6,5.4c5.9,1.8,5.6-1.5,6-4.2
	C-74.2,212.2-74.7,211.8-75.2,211.4z"/>
<path id="XMLID_4372_" class="st0" d="M-95.6,127.8c-2.6-0.9-5.1-1.8-8.7-3.1c2.1,5.4,5.2,4.7,8.3,4.4
	C-96,128.7-95.8,128.2-95.6,127.8z"/>
<path id="XMLID_4371_" class="st0" d="M-96.6,185.4c0.7,3.6-0.7,6.8,3.5,8.2C-92.8,190.3-92.2,187.4-96.6,185.4z"/>
<path id="XMLID_4370_" class="st0" d="M-77.9,209.8c6,1.5,5.4-1.8,5.4-4.7c-0.4-0.3-0.8-0.6-1.2-0.9
	C-75.1,206.1-76.5,208-77.9,209.8z"/>
<path id="XMLID_4369_" class="st0" d="M-121.3,235.9c1.3-1.9,2.6-3.8,4.3-6.2c-5.8-0.9-5.3,2.5-5.8,5.1
	C-122.3,235.2-121.8,235.5-121.3,235.9z"/>
<path id="XMLID_4368_" class="st0" d="M-93.9,185.2c0.7-5.1,0.6-5.3-3.5-5.6C-97.3,182-98.2,184.8-93.9,185.2z"/>
<path id="XMLID_4367_" class="st0" d="M-72.3,217.5c-1,2.1-2,4.2-3.5,7.3c5.4-0.7,4.6-3.9,5.1-6.3
	C-71.2,218.2-71.7,217.9-72.3,217.5z"/>
<path id="XMLID_4366_" class="st0" d="M-75.4,147.8l-0.1-0.3c1.3,1.6,2.6,3.3,4,4.9c0.5-0.3,0.9-0.7,1.4-1c-1.5-2.4-3-4.8-4.5-7.3
	c-0.4,0.2-0.8,0.4-1.2,0.6C-75.7,145.7-75.5,146.7-75.4,147.8z"/>
<path id="XMLID_4365_" class="st0" d="M-104,127.4c-2.3-0.4-4.7-0.8-7-1.2c-0.2,0.7-0.3,1.5-0.5,2.2c2.3,0.5,4.6,1.1,6.9,1.6
	C-104.3,129.1-104.2,128.3-104,127.4z"/>
<path id="XMLID_4364_" class="st0" d="M-127.6,281.1c-2.8-2.8-6.3-2-9.6-1.9c2.9,2.9,6.3,2.7,9.8,1.8
	C-127.4,280.9-127.6,281.1-127.6,281.1z"/>
<path id="XMLID_4363_" class="st0" d="M-110.8,227.2c1.4-1.9,2.1-2.9,3-4c-2.1-0.6-4.2-1.2-6.3-1.8c-0.3,0.3-0.5,0.5-0.8,0.8
	C-113.6,223.8-112.4,225.3-110.8,227.2z"/>
<path id="XMLID_4362_" class="st0" d="M-70,210.5c1-1.8,1.9-3.7,3-5.7c-4.3-1-4.4-0.8-4.3,4.9C-70.8,209.9-70.4,210.2-70,210.5z"/>
<path id="XMLID_4361_" class="st0" d="M-101.8,186.4c1.2,2.4,2.1,4.3,3.1,6.2c0.5-0.6,1.7-1.5,1.5-1.9
	C-97.9,188.9-96.6,185.5-101.8,186.4z"/>
<path id="XMLID_4360_" class="st0" d="M-70.9,184.2c0.1-4.3-2.1-5.8-8-4.6C-76,181.3-73.4,182.8-70.9,184.2z"/>
<path id="XMLID_4359_" class="st0" d="M-81.4,137.7c1.9,1.7,3.7,3.4,5.6,5.1c0.4-0.3,0.7-0.7,1.1-1c-2-2.3-4-4.6-6-6.9
	c-0.3,0.2-0.5,0.4-0.8,0.6c0.1,0.8,0.2,1.5,0.3,2.3C-81.3,137.9-81.4,137.7-81.4,137.7z"/>
<path id="XMLID_4358_" class="st0" d="M-118,221.6c-1.8,2.4-2.9,4-4.6,6.3C-116.8,227.6-116.7,227.4-118,221.6z"/>
<path id="XMLID_4357_" class="st0" d="M-74.7,232.3c0.9-1.9,1.8-3.9,3.2-6.8c-5.3,0.5-4,3.8-4.9,5.7
	C-75.9,231.6-75.3,232-74.7,232.3z"/>
<path id="XMLID_4356_" class="st0" d="M-75.9,233c-0.8,2.4-1.6,4.7-2.4,7.1c0.6,0.3,1.2,0.5,1.9,0.8c0.9-2.3,1.7-4.6,2.6-6.9
	C-74.6,233.6-75.2,233.3-75.9,233z"/>
<path id="XMLID_4355_" class="st0" d="M-109.8,202.9c-1.2,2.2-2.4,4.3-3.7,6.5c0.5,0.3,1,0.6,1.6,0.9c1.3-2.1,2.6-4.2,3.9-6.3
	C-108.6,203.6-109.2,203.2-109.8,202.9z"/>
<path id="XMLID_4354_" class="st0" d="M-99,202c0.8,2.3,1.5,4.4,2.2,6.4C-94.6,203-94.9,202.4-99,202z"/>
<path id="XMLID_4353_" class="st0" d="M-151.9,271.4c2.1,1.7,3.7,4.7,8,1.3c-3-1-5.3-1.7-7.6-2.5
	C-151.6,270.6-151.8,271-151.9,271.4z"/>
<path id="XMLID_4352_" class="st0" d="M-84.5,192.6c3.2,0,6.4,0,9.5,0c0-0.2,0-0.5,0-0.7c-3.1-0.4-6.3-0.8-9.4-1.2
	C-84.5,191.3-84.5,191.9-84.5,192.6z"/>
</svg>
