<?xml version="1.0" encoding="utf-8"?>
<!-- Generator: Adobe Illustrator 19.0.0, SVG Export Plug-In . SVG Version: 6.00 Build 0)  -->
<svg version="1.1" id="Layer_1" xmlns="http://www.w3.org/2000/svg" xmlns:xlink="http://www.w3.org/1999/xlink" x="0px" y="0px"
	 viewBox="0 0 512 512" style="enable-background:new 0 0 512 512;" xml:space="preserve">
<style type="text/css">
	.st0{fill:rgb(150, 150, 150);}
</style>
<path id="XMLID_59_" class="st0" d="M266.6,27.1C390.9,31.2,493,138.5,485.4,266.6C477.5,399.2,368.7,495.8,240.1,486
	C110.7,476.2,18.8,368,26.5,245.3C34.8,114.2,143.3,17.9,266.6,27.1z M54.5,345.5c1.9,4.3,3.7,8.7,5.8,12.9
	c68.1,131.8,244.5,159.3,350.7,55.3c101.4-99.3,70.7-243.9-8.1-302.1c-108.4-80-222.5-36.2-264.6,61.5c-5.7,13.2-7.6,28-11.2,42.1
	c7.4-5.6,10.4-12.4,13.8-19c32.2-62.2,108.8-87.4,171.7-56.8c51.3,25,70.9,70.9,79,122.6c17.8,114.2-102.7,220.5-220.2,176.9
	C121.4,420.3,83.9,388.7,54.5,345.5z M376.4,257.5c0.4-67.4-52.3-121.6-118.9-122.1C189.7,135,135.2,188.7,135,256.3
	c-0.3,66.5,52.8,119.9,120.3,121C321.6,378.4,376,324.5,376.4,257.5z M383,293.2c-5.5,11.1-8.7,17.9-12.3,24.6
	c-28.2,52.4-87.4,78.9-144.9,65c-57.6-13.9-96-61.1-104.8-128.9C104.9,130.6,217.3,34,336.3,69.6c25.5,7.6,49.5,20.1,74.3,30.3
	c-59.3-62.4-156-82.9-238.6-47.4C97.7,84.3,46.5,139.9,40.3,221.5c-6.4,85.2,28.8,155.4,107.3,197.1
	C250.5,473.1,373.5,409.6,383,293.2z"/>
</svg>
