<?xml version="1.0" encoding="utf-8"?>
<!-- Generator: Adobe Illustrator 19.0.0, SVG Export Plug-In . SVG Version: 6.00 Build 0)  -->
<svg version="1.1" id="Layer_5" xmlns="http://www.w3.org/2000/svg" xmlns:xlink="http://www.w3.org/1999/xlink" x="0px" y="0px"
	 viewBox="0 0 1800 600" style="enable-background:new 0 0 1800 600;" xml:space="preserve">
<style type="text/css">
	.st0{fill:none;}
	.st1{fill-rule:evenodd;clip-rule:evenodd;fill:#0EB8AD;}
	.st2{fill-rule:evenodd;clip-rule:evenodd;fill:#25245E;}
	.st3{fill-rule:evenodd;clip-rule:evenodd;fill:#E82352;}
	.st4{fill-rule:evenodd;clip-rule:evenodd;fill:#F8B03C;}
	.st5{opacity:0.5;}
	.st6{fill:url(#XMLID_2_);}
	.st7{fill:url(#XMLID_3_);}
	.st8{fill:url(#XMLID_4_);}
	.st9{fill:url(#XMLID_5_);}
	.st10{fill:url(#XMLID_6_);}
	.st11{fill:url(#XMLID_7_);}
	.st12{fill:url(#XMLID_8_);}
	.st13{fill:url(#XMLID_9_);}
	.st14{fill:url(#XMLID_10_);}
	.st15{fill:#D9E021;}
	.st16{fill:url(#XMLID_11_);}
	.st17{fill:url(#XMLID_12_);}
	.st18{fill:url(#XMLID_13_);}
	.st19{fill:url(#XMLID_14_);}
	.st20{fill:url(#XMLID_15_);}
	.st21{fill:url(#XMLID_16_);}
	.st22{fill:url(#XMLID_17_);}
	.st23{fill:url(#XMLID_18_);}
	.st24{fill:url(#XMLID_19_);}
	.st25{fill:url(#XMLID_20_);}
	.st26{fill:url(#XMLID_21_);}
	.st27{fill:url(#XMLID_22_);}
	.st28{fill:url(#XMLID_23_);}
	.st29{fill:url(#XMLID_24_);}
	.st30{fill:url(#XMLID_25_);}
	.st31{fill:url(#XMLID_26_);}
	.st32{fill:url(#XMLID_27_);}
	.st33{fill:url(#XMLID_28_);}
	.st34{fill:url(#XMLID_29_);}
	.st35{fill:url(#XMLID_30_);}
	.st36{fill:url(#XMLID_31_);}
	.st37{fill:url(#XMLID_32_);}
	.st38{fill:url(#XMLID_33_);}
	.st39{fill:url(#XMLID_34_);}
	.st40{fill:url(#XMLID_35_);}
	.st41{fill:url(#XMLID_36_);}
	.st42{fill:url(#XMLID_37_);}
	.st43{fill:url(#XMLID_38_);}
	.st44{fill:url(#XMLID_39_);}
	.st45{fill:url(#XMLID_40_);}
	.st46{fill:url(#XMLID_41_);}
	.st47{fill:url(#XMLID_42_);}
	.st48{fill:url(#XMLID_43_);}
	.st49{fill:url(#XMLID_44_);}
	.st50{fill:url(#XMLID_45_);}
	.st51{fill:url(#XMLID_46_);}
	.st52{fill:url(#XMLID_47_);}
	.st53{fill:url(#XMLID_48_);}
	.st54{fill:url(#XMLID_49_);}
	.st55{fill:url(#XMLID_50_);}
	.st56{fill:url(#XMLID_51_);}
	.st57{fill:url(#XMLID_52_);}
	.st58{fill:url(#XMLID_53_);}
</style>
<pattern  width="3" height="3" patternUnits="userSpaceOnUse" id="New_Pattern_Swatch_4" viewBox="0 -3 3 3" style="overflow:visible;">
	<g>
		<polygon class="st0" points="0,0 3,0 3,-3 0,-3 		"/>
		<polygon class="st1" points="3,0 0,0 0,-3 3,-3 		"/>
	</g>
</pattern>
<pattern  width="3" height="3" patternUnits="userSpaceOnUse" id="New_Pattern_Swatch_5" viewBox="0 -3 3 3" style="overflow:visible;">
	<g>
		<polygon class="st0" points="0,0 3,0 3,-3 0,-3 		"/>
		<polygon class="st2" points="3,0 0,0 0,-3 3,-3 		"/>
	</g>
</pattern>
<pattern  width="3" height="3" patternUnits="userSpaceOnUse" id="New_Pattern_Swatch_6" viewBox="0 -3 3 3" style="overflow:visible;">
	<g>
		<polygon class="st0" points="0,0 3,0 3,-3 0,-3 		"/>
		<polygon class="st3" points="3,0 0,0 0,-3 3,-3 		"/>
	</g>
</pattern>
<pattern  width="3" height="3" patternUnits="userSpaceOnUse" id="New_Pattern_Swatch_7" viewBox="0 -3 3 3" style="overflow:visible;">
	<g>
		<polygon class="st0" points="0,0 3,0 3,-3 0,-3 		"/>
		<polygon class="st4" points="3,0 0,0 0,-3 3,-3 		"/>
	</g>
</pattern>
<g id="XMLID_106_" class="st5">
	
		<pattern  id="XMLID_2_" xlink:href="#New_Pattern_Swatch_7" patternTransform="matrix(3.248710e-009 -72.3598 72.3598 3.248710e-009 519903.25 -535325.1875)"  class="st5">
	</pattern>
	<path id="XMLID_168_" class="st6" d="M724.6-893.6c-14.5,0-28.9,0-43.4,0c332.3,1246.4,435.2,1632.1,479.9,1792.5
		C1148.5,847,1130.4,781.7,724.6-893.6z"/>
	
		<pattern  id="XMLID_3_" xlink:href="#New_Pattern_Swatch_7" patternTransform="matrix(3.248710e-009 -72.3598 72.3598 3.248710e-009 519903.25 -535325.1875)"  class="st5">
	</pattern>
	<path id="XMLID_151_" class="st7" d="M1183.1,915.4c-42.5-201.7-138.6-673.3-361.7-1809h-50.8
		c250.1,1131.9,357.9,1605.5,406.3,1809H1183.1z"/>
	
		<pattern  id="XMLID_4_" xlink:href="#New_Pattern_Swatch_4" patternTransform="matrix(3.248710e-009 -72.3598 72.3598 3.248710e-009 519903.25 -535325.1875)"  class="st5">
	</pattern>
	<path id="XMLID_136_" class="st8" d="M1193.8,915.4c-34.6-212.6-109.4-696.9-275.8-1809h-58c199.2,1121.2,286.9,1600.7,326.8,1809
		H1193.8z"/>
	
		<pattern  id="XMLID_5_" xlink:href="#New_Pattern_Swatch_5" patternTransform="matrix(3.248710e-009 -72.3598 72.3598 3.248710e-009 519903.25 -535325.1875)"  class="st5">
	</pattern>
	<path id="XMLID_121_" class="st9" d="M1201.6,915.4c-23.5-205.8-74-683.3-187-1809h-65.2c150.2,1131.2,215.7,1606,245.3,1809
		H1201.6z"/>
	
		<pattern  id="XMLID_6_" xlink:href="#New_Pattern_Swatch_6" patternTransform="matrix(3.248710e-009 -72.3598 72.3598 3.248710e-009 519903.25 -535325.1875)"  class="st5">
	</pattern>
	<path id="XMLID_120_" class="st10" d="M1211.3,915.4c-14.1-208.2-42-688.1-99.9-1809h-72.6c99.1,1120,144.6,1600.3,166.1,1809
		H1211.3z"/>
	
		<pattern  id="XMLID_7_" xlink:href="#New_Pattern_Swatch_4" patternTransform="matrix(3.248710e-009 -72.3598 72.3598 3.248710e-009 519903.25 -535325.1875)"  class="st5">
	</pattern>
	<path id="XMLID_118_" class="st11" d="M1219,915.4c-4.3-206.3-8.9-684.5-10.9-1809h-79.9c48.5,1119.2,72.5,1600,85.2,1809H1219z"/>
	
		<pattern  id="XMLID_8_" xlink:href="#New_Pattern_Swatch_7" patternTransform="matrix(3.248710e-009 -72.3598 72.3598 3.248710e-009 519903.25 -535325.1875)"  class="st5">
	</pattern>
	<path id="XMLID_117_" class="st12" d="M1839.4-893.6c-12.1,0-24.2,0-36,0C1683.1-476.7,1605-208.1,1556.2-22.4
		C1633.8-226.8,1719.6-492.9,1839.4-893.6z"/>
	
		<pattern  id="XMLID_9_" xlink:href="#New_Pattern_Swatch_4" patternTransform="matrix(3.248710e-009 -72.3598 72.3598 3.248710e-009 519903.25 -535325.1875)"  class="st5">
	</pattern>
	<path id="XMLID_115_" class="st13" d="M1750-893.6c-14.3,0-28.8,0-43.2,0c-199.3,689.7-324.2,1122-389.6,1385.7
		C1434.7,56.7,1570-314,1750-893.6z"/>
	
		<pattern  id="XMLID_10_" xlink:href="#New_Pattern_Swatch_5" patternTransform="matrix(3.248710e-009 -72.3598 72.3598 3.248710e-009 519903.25 -535325.1875)"  class="st5">
	</pattern>
	<path id="XMLID_114_" class="st14" d="M1226.9,915.4c23-256.7,196.1-1012.9,433.7-1809H1610c-279,1117.6-369.6,1655.7-383.4,1809
		H1226.9z"/>
	<path id="XMLID_113_" class="st15" d="M1571.3-893.6h-57.9c-101,567.9-166.9,969.9-210.2,1255.7
		C1354.9,63.4,1438.2-346.2,1571.3-893.6z"/>
	<path id="XMLID_112_" class="st15" d="M1230.3,915.4c9.4-99.4,29.8-268.1,72.9-553.3c-45.9,265.8-66.9,444.2-75.6,553.3H1230.3z"/>
	
		<pattern  id="XMLID_11_" xlink:href="#New_Pattern_Swatch_4" patternTransform="matrix(3.248710e-009 -72.3598 72.3598 3.248710e-009 519903.25 -535325.1875)"  class="st5">
	</pattern>
	<path id="XMLID_111_" class="st16" d="M1238.1,915.4c18.7-213.8,76.1-700.8,243.8-1809h-65.3c-131.2,1154.5-175.3,1617.8-189,1809
		H1238.1z"/>
	
		<pattern  id="XMLID_12_" xlink:href="#New_Pattern_Swatch_5" patternTransform="matrix(3.248710e-009 -72.3598 72.3598 3.248710e-009 519903.25 -535325.1875)"  class="st5">
	</pattern>
	<path id="XMLID_110_" class="st17" d="M1231.1,915.4c13.1-205.1,52.5-682.3,161.4-1809H1320c-70.5,1163.6-92.5,1622.2-98.3,1809
		H1231.1z"/>
	
		<pattern  id="XMLID_13_" xlink:href="#New_Pattern_Swatch_7" patternTransform="matrix(3.248710e-009 -72.3598 72.3598 3.248710e-009 519903.25 -535325.1875)"  class="st5">
	</pattern>
	<path id="XMLID_109_" class="st18" d="M1223,915.4c4.8-197.4,23.1-666.9,80.2-1809h-80c-7.4,1128.9-6.4,1605.1-3.7,1809H1223z"/>
	
		<pattern  id="XMLID_14_" xlink:href="#New_Pattern_Swatch_4" patternTransform="matrix(3.248710e-009 -72.3598 72.3598 3.248710e-009 519903.25 -535325.1875)"  class="st5">
	</pattern>
	<path id="XMLID_108_" class="st19" d="M1231.4,915.4c6.4-43.5,17.2-97.7,35.2-156.9c3.5-23.5,13.7-73.8,32.6-150.5
		c-34.3,115.2-57.9,227.8-68.3,307.4H1231.4z"/>
	
		<pattern  id="XMLID_15_" xlink:href="#New_Pattern_Swatch_4" patternTransform="matrix(3.248710e-009 -72.3598 72.3598 3.248710e-009 519903.25 -535325.1875)"  class="st5">
	</pattern>
	<path id="XMLID_107_" class="st20" d="M1161.8,915.4c-16.8-55.5-36.2-121.5-58.2-196.3c-7.3-20.2-22.5-67-44.7-135.7
		c41.8,135.1,76.8,250.2,102.3,332H1161.8z"/>
</g>
<g id="XMLID_89_" class="st5">
	
		<pattern  id="XMLID_16_" xlink:href="#New_Pattern_Swatch_7" patternTransform="matrix(3.248710e-009 -72.3598 72.3598 3.248710e-009 519903.25 -535325.1875)"  class="st5">
	</pattern>
	<path id="XMLID_105_" class="st21" d="M1289.9,915.4c-14.5,0-28.9,0-43.4,0C1578.8-330.9,1681.7-716.6,1726.4-877
		C1713.8-825.2,1695.7-759.9,1289.9,915.4z"/>
	
		<pattern  id="XMLID_17_" xlink:href="#New_Pattern_Swatch_7" patternTransform="matrix(3.248710e-009 -72.3598 72.3598 3.248710e-009 519903.25 -535325.1875)"  class="st5">
	</pattern>
	<path id="XMLID_104_" class="st22" d="M1748.4-893.6c-42.5,201.7-138.6,673.3-361.7,1809h-50.8c250.1-1131.9,358-1605.5,406.3-1809
		H1748.4z"/>
	
		<pattern  id="XMLID_18_" xlink:href="#New_Pattern_Swatch_4" patternTransform="matrix(3.248710e-009 -72.3598 72.3598 3.248710e-009 519903.25 -535325.1875)"  class="st5">
	</pattern>
	<path id="XMLID_103_" class="st23" d="M1759.1-893.6c-34.5,212.6-109.4,696.9-275.8,1809h-58c199.3-1121.2,286.9-1600.7,326.8-1809
		H1759.1z"/>
	
		<pattern  id="XMLID_19_" xlink:href="#New_Pattern_Swatch_5" patternTransform="matrix(3.248710e-009 -72.3598 72.3598 3.248710e-009 519903.25 -535325.1875)"  class="st5">
	</pattern>
	<path id="XMLID_102_" class="st24" d="M1766.9-893.6c-23.5,205.8-74.1,683.3-187,1809h-65.3c150.2-1131.2,215.8-1606,245.4-1809
		H1766.9z"/>
	
		<pattern  id="XMLID_20_" xlink:href="#New_Pattern_Swatch_6" patternTransform="matrix(3.248710e-009 -72.3598 72.3598 3.248710e-009 519903.25 -535325.1875)"  class="st5">
	</pattern>
	<path id="XMLID_101_" class="st25" d="M1776.6-893.6c-14.2,208.2-42,688.1-99.9,1809H1604c99.1-1120,144.5-1600.3,166.1-1809
		H1776.6z"/>
	
		<pattern  id="XMLID_21_" xlink:href="#New_Pattern_Swatch_4" patternTransform="matrix(3.248710e-009 -72.3598 72.3598 3.248710e-009 519903.25 -535325.1875)"  class="st5">
	</pattern>
	<path id="XMLID_100_" class="st26" d="M1784.3-893.6c-4.3,206.3-8.9,684.5-10.9,1809h-79.9c48.5-1119.2,72.5-1600,85.2-1809H1784.3
		z"/>
	
		<pattern  id="XMLID_22_" xlink:href="#New_Pattern_Swatch_7" patternTransform="matrix(3.248710e-009 -72.3598 72.3598 3.248710e-009 519903.25 -535325.1875)"  class="st5">
	</pattern>
	<path id="XMLID_99_" class="st27" d="M2404.7,915.4c-12,0-24.1,0-36,0C2248.4,498.5,2170.3,230,2121.6,44.3
		C2199.2,248.6,2284.9,514.8,2404.7,915.4z"/>
	
		<pattern  id="XMLID_23_" xlink:href="#New_Pattern_Swatch_4" patternTransform="matrix(3.248710e-009 -72.3598 72.3598 3.248710e-009 519903.25 -535325.1875)"  class="st5">
	</pattern>
	<path id="XMLID_98_" class="st28" d="M2315.3,915.4c-14.3,0-28.8,0-43.2,0c-199.3-689.7-324.3-1122-389.7-1385.7
		C2000.1-34.9,2135.4,335.8,2315.3,915.4z"/>
	
		<pattern  id="XMLID_24_" xlink:href="#New_Pattern_Swatch_5" patternTransform="matrix(3.248710e-009 -72.3598 72.3598 3.248710e-009 519903.25 -535325.1875)"  class="st5">
	</pattern>
	<path id="XMLID_97_" class="st29" d="M1792.2-893.6c23,256.7,196.1,1012.9,433.7,1809h-50.6c-279.1-1117.6-369.7-1655.7-383.4-1809
		H1792.2z"/>
	<path id="XMLID_96_" class="st15" d="M2136.6,915.4h-57.9c-101-567.9-166.9-969.9-210.2-1255.7
		C1920.3-41.5,2003.5,368.1,2136.6,915.4z"/>
	<path id="XMLID_95_" class="st15" d="M1795.6-893.6c9.4,99.4,29.8,268.1,72.9,553.3c-45.9-265.8-67-444.2-75.6-553.3H1795.6z"/>
	
		<pattern  id="XMLID_25_" xlink:href="#New_Pattern_Swatch_4" patternTransform="matrix(3.248710e-009 -72.3598 72.3598 3.248710e-009 519903.25 -535325.1875)"  class="st5">
	</pattern>
	<path id="XMLID_94_" class="st30" d="M1803.4-893.6c18.7,213.8,76.1,700.8,243.9,1809H1982c-131.2-1154.5-175.4-1617.8-189.1-1809
		H1803.4z"/>
	
		<pattern  id="XMLID_26_" xlink:href="#New_Pattern_Swatch_5" patternTransform="matrix(3.248710e-009 -72.3598 72.3598 3.248710e-009 519903.25 -535325.1875)"  class="st5">
	</pattern>
	<path id="XMLID_93_" class="st31" d="M1796.4-893.6c13.1,205.1,52.4,682.3,161.4,1809h-72.6c-70.5-1163.6-92.5-1622.2-98.3-1809
		H1796.4z"/>
	
		<pattern  id="XMLID_27_" xlink:href="#New_Pattern_Swatch_7" patternTransform="matrix(3.248710e-009 -72.3598 72.3598 3.248710e-009 519903.25 -535325.1875)"  class="st5">
	</pattern>
	<path id="XMLID_92_" class="st32" d="M1788.3-893.6c4.7,197.4,23.1,666.9,80.2,1809h-80c-7.4-1128.9-6.5-1605.1-3.8-1809H1788.3z"
		/>
	
		<pattern  id="XMLID_28_" xlink:href="#New_Pattern_Swatch_4" patternTransform="matrix(3.248710e-009 -72.3598 72.3598 3.248710e-009 519903.25 -535325.1875)"  class="st5">
	</pattern>
	<path id="XMLID_91_" class="st33" d="M1796.7-893.6c6.4,43.5,17.2,97.7,35.2,156.9c3.5,23.5,13.7,73.8,32.6,150.5
		c-34.2-115.2-57.9-227.8-68.3-307.4H1796.7z"/>
	
		<pattern  id="XMLID_29_" xlink:href="#New_Pattern_Swatch_4" patternTransform="matrix(3.248710e-009 -72.3598 72.3598 3.248710e-009 519903.25 -535325.1875)"  class="st5">
	</pattern>
	<path id="XMLID_90_" class="st34" d="M1727.2-893.6C1710.3-838,1691-772,1669-697.3c-7.3,20.2-22.5,67-44.7,135.7
		c41.8-135.1,76.7-250.1,102.3-332H1727.2z"/>
</g>
<g id="XMLID_74_" class="st5">
	
		<pattern  id="XMLID_30_" xlink:href="#New_Pattern_Swatch_7" patternTransform="matrix(3.248710e-009 -72.3598 72.3598 3.248710e-009 519903.25 -535325.1875)"  class="st5">
	</pattern>
	<path id="XMLID_88_" class="st35" d="M156.6,915.4c-15.8,0-31.4,0-47.1,0C470-330.9,581.6-716.6,630.1-877
		C616.4-825.2,596.9-759.9,156.6,915.4z"/>
	
		<pattern  id="XMLID_31_" xlink:href="#New_Pattern_Swatch_4" patternTransform="matrix(3.248710e-009 -72.3598 72.3598 3.248710e-009 519903.25 -535325.1875)"  class="st5">
	</pattern>
	<path id="XMLID_87_" class="st36" d="M654-893.6c-46.1,201.7-150.3,673.3-392.5,1809h-55C477.8-216.5,594.7-690.1,647.3-893.6H654z
		"/>
	
		<pattern  id="XMLID_32_" xlink:href="#New_Pattern_Swatch_4" patternTransform="matrix(3.248710e-009 -72.3598 72.3598 3.248710e-009 519903.25 -535325.1875)"  class="st5">
	</pattern>
	<path id="XMLID_86_" class="st37" d="M665.7-893.6C628.2-681,546.9-196.7,366.4,915.4h-62.9C519.7-205.7,614.8-685.3,658-893.6
		H665.7z"/>
	
		<pattern  id="XMLID_33_" xlink:href="#New_Pattern_Swatch_5" patternTransform="matrix(3.248710e-009 -72.3598 72.3598 3.248710e-009 519903.25 -535325.1875)"  class="st5">
	</pattern>
	<path id="XMLID_85_" class="st38" d="M674-893.6c-25.6,205.8-80.3,683.3-202.7,1809h-70.8c162.9-1131.2,234-1606,266.1-1809H674z"
		/>
	
		<pattern  id="XMLID_34_" xlink:href="#New_Pattern_Swatch_6" patternTransform="matrix(3.248710e-009 -72.3598 72.3598 3.248710e-009 519903.25 -535325.1875)"  class="st5">
	</pattern>
	<path id="XMLID_84_" class="st39" d="M684.6-893.6c-15.4,208.2-45.6,688.1-108.3,1809h-78.9C605-204.6,654.3-684.8,677.6-893.6
		H684.6z"/>
	
		<pattern  id="XMLID_35_" xlink:href="#New_Pattern_Swatch_7" patternTransform="matrix(3.248710e-009 -72.3598 72.3598 3.248710e-009 519903.25 -535325.1875)"  class="st5">
	</pattern>
	<path id="XMLID_83_" class="st40" d="M692.9-893.6c-4.7,206.3-9.7,684.5-11.7,1809h-86.7c52.6-1119.2,78.6-1600,92.4-1809H692.9z"
		/>
	
		<pattern  id="XMLID_36_" xlink:href="#New_Pattern_Swatch_5" patternTransform="matrix(3.248710e-009 -72.3598 72.3598 3.248710e-009 519903.25 -535325.1875)"  class="st5">
	</pattern>
	<path id="XMLID_82_" class="st41" d="M701.6-893.6c25.1,256.7,212.7,1012.9,470.6,1809h-55c-302.7-1117.6-401.1-1655.7-416-1809
		H701.6z"/>
	<path id="XMLID_81_" class="st15" d="M1075.3,915.4h-63c-109.5-567.9-181-969.9-228-1255.7C840.4-41.5,930.8,368.1,1075.3,915.4z"
		/>
	<path id="XMLID_80_" class="st15" d="M705.3-893.6c10.1,99.4,32.2,268.1,78.9,553.3c-49.8-265.8-72.6-444.2-81.9-553.3H705.3z"/>
	
		<pattern  id="XMLID_37_" xlink:href="#New_Pattern_Swatch_7" patternTransform="matrix(3.248710e-009 -72.3598 72.3598 3.248710e-009 519903.25 -535325.1875)"  class="st5">
	</pattern>
	<path id="XMLID_79_" class="st42" d="M713.7-893.6c20.4,213.8,82.6,700.8,264.6,1809h-70.9c-142.2-1154.5-190.1-1617.8-205-1809
		H713.7z"/>
	
		<pattern  id="XMLID_38_" xlink:href="#New_Pattern_Swatch_5" patternTransform="matrix(3.248710e-009 -72.3598 72.3598 3.248710e-009 519903.25 -535325.1875)"  class="st5">
	</pattern>
	<path id="XMLID_78_" class="st43" d="M706.2-893.6c14.1,205.1,57,682.3,175.1,1809h-78.8C726-248.1,702.2-706.7,695.9-893.6H706.2z
		"/>
	
		<pattern  id="XMLID_39_" xlink:href="#New_Pattern_Swatch_4" patternTransform="matrix(3.248710e-009 -72.3598 72.3598 3.248710e-009 519903.25 -535325.1875)"  class="st5">
	</pattern>
	<path id="XMLID_77_" class="st44" d="M697.4-893.6c5,197.4,25,666.9,86.8,1809h-86.7c-8-1128.9-7.1-1605.1-4.1-1809H697.4z"/>
	
		<pattern  id="XMLID_40_" xlink:href="#New_Pattern_Swatch_4" patternTransform="matrix(3.248710e-009 -72.3598 72.3598 3.248710e-009 519903.25 -535325.1875)"  class="st5">
	</pattern>
	<path id="XMLID_76_" class="st45" d="M706.4-893.6c6.9,43.5,18.7,97.7,38.4,156.9c3.6,23.5,14.8,73.8,35.3,150.5
		c-37.2-115.2-62.8-227.8-74.1-307.4H706.4z"/>
	
		<pattern  id="XMLID_41_" xlink:href="#New_Pattern_Swatch_4" patternTransform="matrix(3.248710e-009 -72.3598 72.3598 3.248710e-009 519903.25 -535325.1875)"  class="st5">
	</pattern>
	<path id="XMLID_75_" class="st46" d="M630.9-893.6C612.8-838,591.6-772,567.7-697.3c-7.8,20.2-24.3,67-48.4,135.7
		c45.3-135.1,83.4-250.1,110.9-332H630.9z"/>
</g>
<g id="XMLID_59_" class="st5">
	
		<pattern  id="XMLID_42_" xlink:href="#New_Pattern_Swatch_7" patternTransform="matrix(3.248710e-009 -72.3598 72.3598 3.248710e-009 519903.25 -535325.1875)"  class="st5">
	</pattern>
	<path id="XMLID_73_" class="st47" d="M569.2-893.6c15.8,0,31.4,0,47.1,0C255.8,352.8,144.2,738.5,95.6,898.9
		C109.4,847,128.9,781.7,569.2-893.6z"/>
	
		<pattern  id="XMLID_43_" xlink:href="#New_Pattern_Swatch_4" patternTransform="matrix(3.248710e-009 -72.3598 72.3598 3.248710e-009 519903.25 -535325.1875)"  class="st5">
	</pattern>
	<path id="XMLID_72_" class="st48" d="M71.8,915.4c46.1-201.7,150.3-673.3,392.5-1809h55.1C248.1,238.3,131.1,711.9,78.5,915.4H71.8
		z"/>
	
		<pattern  id="XMLID_44_" xlink:href="#New_Pattern_Swatch_4" patternTransform="matrix(3.248710e-009 -72.3598 72.3598 3.248710e-009 519903.25 -535325.1875)"  class="st5">
	</pattern>
	<path id="XMLID_71_" class="st49" d="M60.2,915.4c37.5-212.6,118.7-696.9,299.3-1809h62.9C206.2,227.6,111,707.1,67.8,915.4H60.2z"
		/>
	
		<pattern  id="XMLID_45_" xlink:href="#New_Pattern_Swatch_5" patternTransform="matrix(3.248710e-009 -72.3598 72.3598 3.248710e-009 519903.25 -535325.1875)"  class="st5">
	</pattern>
	<path id="XMLID_70_" class="st50" d="M51.8,915.4c25.5-205.8,80.2-683.3,202.7-1809h70.8c-162.9,1131.2-234,1606-266.1,1809H51.8z"
		/>
	
		<pattern  id="XMLID_46_" xlink:href="#New_Pattern_Swatch_6" patternTransform="matrix(3.248710e-009 -72.3598 72.3598 3.248710e-009 519903.25 -535325.1875)"  class="st5">
	</pattern>
	<path id="XMLID_69_" class="st51" d="M41.2,915.4c15.4-208.2,45.7-688.1,108.4-1809h78.9C120.8,226.5,71.5,706.7,48.2,915.4H41.2z"
		/>
	
		<pattern  id="XMLID_47_" xlink:href="#New_Pattern_Swatch_7" patternTransform="matrix(3.248710e-009 -72.3598 72.3598 3.248710e-009 519903.25 -535325.1875)"  class="st5">
	</pattern>
	<path id="XMLID_68_" class="st52" d="M32.9,915.4c4.7-206.3,9.7-684.5,11.8-1809h86.7C78.8,225.6,52.7,706.4,39,915.4H32.9z"/>
	
		<pattern  id="XMLID_48_" xlink:href="#New_Pattern_Swatch_5" patternTransform="matrix(3.248710e-009 -72.3598 72.3598 3.248710e-009 519903.25 -535325.1875)"  class="st5">
	</pattern>
	<path id="XMLID_67_" class="st53" d="M24.3,915.4C-0.8,658.8-188.5-97.5-446.3-893.6h54.9C-88.6,224.1,9.7,762.1,24.6,915.4H24.3z"
		/>
	<path id="XMLID_66_" class="st15" d="M-349.5-893.6h63c109.4,567.9,181,969.9,228,1255.7C-114.7,63.4-205-346.2-349.5-893.6z"/>
	<path id="XMLID_65_" class="st15" d="M20.5,915.4c-10-99.4-32.2-268.1-78.9-553.3C-8.7,628,14.2,806.3,23.4,915.4H20.5z"/>
	
		<pattern  id="XMLID_49_" xlink:href="#New_Pattern_Swatch_7" patternTransform="matrix(3.248710e-009 -72.3598 72.3598 3.248710e-009 519903.25 -535325.1875)"  class="st5">
	</pattern>
	<path id="XMLID_64_" class="st54" d="M12.1,915.4c-20.4-213.8-82.5-700.8-264.6-1809h70.9C-39.3,260.9,8.6,724.2,23.4,915.4H12.1z"
		/>
	
		<pattern  id="XMLID_50_" xlink:href="#New_Pattern_Swatch_5" patternTransform="matrix(3.248710e-009 -72.3598 72.3598 3.248710e-009 519903.25 -535325.1875)"  class="st5">
	</pattern>
	<path id="XMLID_63_" class="st55" d="M19.7,915.4c-14.1-205.1-57-682.3-175.1-1809h78.8C-0.1,270,23.7,728.6,29.9,915.4H19.7z"/>
	
		<pattern  id="XMLID_51_" xlink:href="#New_Pattern_Swatch_4" patternTransform="matrix(3.248710e-009 -72.3598 72.3598 3.248710e-009 519903.25 -535325.1875)"  class="st5">
	</pattern>
	<path id="XMLID_62_" class="st56" d="M28.4,915.4c-5.1-197.4-25-666.9-86.8-1809h86.7c8,1128.9,7.1,1605.1,4.1,1809H28.4z"/>
	
		<pattern  id="XMLID_52_" xlink:href="#New_Pattern_Swatch_4" patternTransform="matrix(3.248710e-009 -72.3598 72.3598 3.248710e-009 519903.25 -535325.1875)"  class="st5">
	</pattern>
	<path id="XMLID_61_" class="st57" d="M19.5,915.4c-6.9-43.5-18.7-97.7-38.4-156.9c-3.7-23.5-14.8-73.8-35.3-150.5
		C-17,723.2,8.7,835.9,20,915.4H19.5z"/>
	
		<pattern  id="XMLID_53_" xlink:href="#New_Pattern_Swatch_4" patternTransform="matrix(3.248710e-009 -72.3598 72.3598 3.248710e-009 519903.25 -535325.1875)"  class="st5">
	</pattern>
	<path id="XMLID_60_" class="st58" d="M94.9,915.4c18.2-55.5,39.3-121.5,63.1-196.3c7.9-20.2,24.4-67,48.5-135.7
		c-45.4,135.1-83.4,250.2-110.9,332H94.9z"/>
</g>
</svg>
